<?xml version="1.0" standalone="no"?>
<!DOCTYPE svg PUBLIC "-//W3C//DTD SVG 20010904//EN"
 "http://www.w3.org/TR/2001/REC-SVG-20010904/DTD/svg10.dtd">
<svg version="1.0" xmlns="http://www.w3.org/2000/svg"
 width="1024.000000pt" height="1024.000000pt" viewBox="0 0 1024.000000 1024.000000"
 preserveAspectRatio="xMidYMid meet">

<g transform="translate(0.000000,1024.000000) scale(0.100000,-0.100000)"
fill="#000000" stroke="none">
<path d="M0 5120 l0 -5120 5120 0 5120 0 0 5120 0 5120 -5120 0 -5120 0 0
-5120z m7080 4303 c25 -13 25 -13 -7 -11 -33 2 -33 3 -32 53 l2 50 6 -40 c4
-29 13 -43 31 -52z m650 36 c0 -46 -2 -50 -22 -47 -12 2 -23 9 -24 16 -1 7 0
8 3 2 11 -22 33 -9 33 20 0 32 -9 37 -28 18 -9 -9 -12 -9 -12 1 0 7 9 15 20
18 11 3 20 9 20 14 0 5 2 9 5 9 3 0 5 -23 5 -51z m641 -4 c-7 -49 -7 -49 -15
-18 -4 19 -3 40 4 53 17 31 20 21 11 -35z m1162 45 c-13 -5 -23 -15 -23 -21 0
-7 -3 -9 -6 -6 -10 10 16 37 35 36 11 0 9 -3 -6 -9z m-1210 -20 c9 -11 17 -30
17 -43 -1 -22 -1 -22 -15 3 -10 19 -15 21 -18 10 -3 -8 -8 -22 -10 -30 -3 -8
-6 6 -6 33 -1 52 6 57 32 27z m1243 -26 c-3 -8 -11 -14 -18 -13 -10 0 -10 2 0
6 6 2 13 17 13 31 1 18 3 21 6 9 3 -10 2 -25 -1 -33z m-2428 25 c-22 -12 -23
-27 -2 -50 15 -16 14 -17 -5 -12 -39 10 -26 73 14 73 6 -1 2 -5 -7 -11z m1717
-67 c-6 -6 -25 45 -24 66 0 9 7 -1 15 -22 8 -22 12 -41 9 -44z m-1598 38 c2
-21 1 -22 -5 -6 -5 11 -17 23 -28 28 -16 6 -15 7 6 5 19 -1 26 -8 27 -27z m34
8 c-4 -13 -6 -29 -4 -35 3 -7 0 -13 -6 -13 -6 0 -11 6 -11 13 0 24 12 57 21
57 5 0 5 -10 0 -22z m97 -10 c2 -20 -2 -28 -18 -33 -25 -8 -60 19 -59 44 0 11
3 10 11 -6 13 -26 38 -37 52 -23 7 7 7 17 -3 31 -10 18 -10 20 1 17 7 -3 14
-16 16 -30z m19 -5 c-3 -10 -5 -4 -5 12 0 17 2 24 5 18 2 -7 2 -21 0 -30z m79
21 c-3 -9 -6 -22 -6 -30 0 -9 -4 -13 -9 -10 -5 3 -7 15 -4 26 4 14 0 20 -10
20 -9 0 -18 -10 -20 -22 -4 -20 -4 -19 -6 5 -1 24 3 27 30 27 24 0 30 -3 25
-16z m31 -31 c-3 -10 -5 -2 -5 17 0 19 2 27 5 18 2 -10 2 -26 0 -35z m48 33
c-11 -8 -16 -19 -12 -30 4 -9 2 -16 -4 -16 -13 0 -22 27 -15 45 3 8 15 15 28
15 21 0 21 -1 3 -14z m55 -16 c0 -16 -2 -30 -4 -30 -2 0 -6 14 -8 30 -3 17 -1
30 4 30 4 0 8 -13 8 -30z m28 5 c-3 -3 -9 2 -12 12 -6 14 -5 15 5 6 7 -7 10
-15 7 -18z m808 -1 c4 -14 2 -30 -4 -36 -13 -13 -45 -7 -48 10 -1 7 0 8 3 2 7
-15 30 -12 37 6 9 23 8 24 -16 34 l-23 9 22 0 c16 1 24 -6 29 -25z m34 -26 c0
-28 -2 -49 -4 -47 -8 9 -13 99 -5 99 5 0 9 -23 9 -52z m60 17 c0 -37 -5 -41
-30 -25 -13 8 -12 10 3 10 10 0 17 8 17 20 0 25 -27 27 -33 3 -4 -14 -5 -12
-6 5 -1 17 4 22 24 22 22 0 25 -4 25 -35z m40 -7 c0 -9 -4 -20 -10 -23 -6 -4
-10 9 -10 32 0 28 3 34 10 23 5 -8 10 -23 10 -32z m99 10 c-2 -31 -2 -31 -6
-5 -2 15 -8 27 -13 27 -5 0 -7 -8 -4 -17 5 -17 5 -17 -9 0 -20 25 -27 21 -28
-15 l-2 -33 -4 30 c-3 16 -10 33 -16 37 -7 4 9 8 36 8 47 0 47 0 46 -32z m99
1 c2 -21 -2 -28 -23 -33 -35 -9 -45 -1 -45 35 0 28 2 30 33 27 26 -2 33 -8 35
-29z m30 -15 c-3 -27 -4 -26 -9 8 -3 22 -1 34 4 29 5 -5 7 -21 5 -37z m72 42
c0 -2 -7 -7 -16 -10 -8 -3 -12 -2 -9 4 6 10 25 14 25 6z m25 -6 c3 -5 1 -10
-4 -10 -6 0 -11 5 -11 10 0 6 2 10 4 10 3 0 8 -4 11 -10z m-1729 -47 c-2 -3
-15 4 -27 15 l-21 21 21 -6 c13 -3 21 0 22 8 1 8 4 3 6 -9 3 -13 2 -26 -1 -29z
m44 5 c0 -5 -6 -8 -14 -8 -9 0 -12 7 -9 21 4 16 8 17 14 7 5 -7 9 -16 9 -20z
m1690 -3 c-7 -8 -16 -15 -21 -15 -5 0 -1 8 9 18 20 22 31 19 12 -3z m-2092
-708 c4 -22 -27 -35 -38 -16 -10 15 7 42 24 36 6 -2 12 -11 14 -20z m1102
-103 c61 -33 100 -89 100 -146 0 -34 -2 -36 -25 -32 -14 2 -25 0 -25 -5 0 -14
-34 -8 -47 9 -7 8 -13 10 -13 4 0 -13 -30 -14 -30 -1 0 5 -7 4 -15 -3 -12 -10
-15 -9 -15 4 0 10 -4 14 -10 11 -5 -3 -10 -1 -10 5 0 7 -6 10 -14 7 -7 -3 -23
1 -34 8 -10 8 -23 11 -27 7 -3 -4 -6 -2 -5 3 5 21 0 36 -10 30 -5 -3 -10 -1
-10 5 0 6 -4 8 -10 5 -5 -3 -10 1 -10 9 0 9 -6 16 -12 16 -10 0 -10 2 0 9 8 4
13 12 12 17 -3 14 44 45 81 54 40 9 94 3 129 -16z m-2827 -171 c-13 -2 -35 -2
-50 0 -16 2 -5 4 22 4 28 0 40 -2 28 -4z m115 0 c-16 -2 -40 -2 -55 0 -16 2
-3 4 27 4 30 0 43 -2 28 -4z m-290 -10 c-10 -2 -26 -2 -35 0 -10 3 -2 5 17 5
19 0 27 -2 18 -5z m450 0 c-10 -2 -28 -2 -40 0 -13 2 -5 4 17 4 22 1 32 -1 23
-4z m-551 -9 c-3 -3 -12 -4 -19 -1 -8 3 -5 6 6 6 11 1 17 -2 13 -5z m636 -1
c-7 -2 -19 -2 -25 0 -7 3 -2 5 12 5 14 0 19 -2 13 -5z m134 -19 c-3 -3 -12 -4
-19 -1 -8 3 -5 6 6 6 11 1 17 -2 13 -5z m60 -10 c-3 -3 -12 -4 -19 -1 -8 3 -5
6 6 6 11 1 17 -2 13 -5z m-1577 -169 c0 -6 -56 -35 -67 -35 -4 1 8 9 27 20 39
22 40 22 40 15z m-160 -80 c0 -2 -10 -9 -22 -15 -22 -11 -22 -10 -4 4 21 17
26 19 26 11z m1545 -278 c386 -64 701 -191 1012 -408 282 -197 535 -475 697
-766 196 -351 284 -674 299 -1093 10 -260 -36 -553 -126 -815 -34 -98 -59
-157 -64 -152 -2 3 9 38 25 78 67 167 115 367 142 586 9 69 8 88 -2 94 -10 7
-10 9 0 9 9 0 12 32 12 125 0 69 -2 125 -4 125 -2 0 -38 -11 -81 -25 -116 -38
-201 -101 -278 -206 l-27 -36 48 8 c78 13 312 23 312 13 0 -5 -35 -8 -77 -8
-164 3 -265 -17 -478 -91 -16 -6 -17 -5 -5 4 8 6 51 23 95 37 63 21 86 34 110
63 116 141 179 189 304 232 55 19 76 30 75 42 0 10 -1 33 -2 52 l-2 35 -2232
0 c-1228 0 -2240 1 -2248 2 -8 1 -50 0 -92 0 l-78 -2 0 -49 c0 -46 2 -49 33
-61 160 -60 227 -107 318 -227 24 -32 48 -61 54 -65 6 -5 6 -8 -1 -8 -6 0 -14
3 -18 7 -8 8 -22 11 -126 23 l-75 9 93 -4 93 -5 -21 30 c-11 16 -48 56 -81 89
-64 64 -171 125 -243 137 l-39 7 6 -204 c7 -217 17 -279 45 -279 36 0 186 -60
206 -82 19 -20 19 -21 1 -6 -26 20 -139 64 -187 73 -29 6 -38 4 -38 -6 1 -24
39 -192 56 -241 l16 -48 126 -2 127 -2 -123 -3 -123 -4 6 -32 c7 -31 40 -121
72 -199 9 -21 19 -35 24 -33 4 3 11 0 15 -6 5 -8 3 -9 -6 -4 -16 10 -6 -23 27
-88 13 -27 22 -51 20 -53 -6 -6 -94 186 -129 281 -98 264 -138 471 -145 742
-11 390 39 678 169 983 127 299 278 528 493 749 358 369 867 619 1398 686 140
18 492 13 622 -8z m-4630 -137 c0 -22 -29 -18 -33 3 -3 14 1 18 15 15 10 -2
18 -10 18 -18z m2505 7 c0 -2 -10 -12 -22 -23 l-23 -19 19 23 c18 21 26 27 26
19z m-240 -240 c0 -2 -10 -12 -22 -23 l-23 -19 19 23 c18 21 26 27 26 19z
m-70 -81 c0 -2 -8 -10 -17 -17 -16 -13 -17 -12 -4 4 13 16 21 21 21 13z m5091
-479 c93 -62 86 -181 -13 -233 -85 -44 -188 23 -188 122 0 105 115 169 201
111z m611 -39 c-9 -9 -15 -9 -23 -1 -7 7 -9 20 -5 29 6 16 8 16 23 1 13 -13
15 -19 5 -29z m-6437 -171 c74 -42 109 -123 85 -200 -7 -23 -15 -37 -17 -30
-2 7 -20 17 -39 23 -19 6 -32 15 -29 20 3 4 -1 8 -8 7 -39 -1 -58 4 -51 15 4
7 3 8 -4 4 -12 -7 -29 3 -60 36 -12 13 -19 15 -29 6 -10 -8 -13 -8 -11 -1 2 6
-12 24 -30 41 -38 35 -35 50 16 80 50 29 124 29 177 -1z m-200 -87 c3 -6 -1
-7 -9 -4 -18 7 -21 14 -7 14 6 0 13 -4 16 -10z m259 -156 c3 -8 2 -12 -4 -9
-6 3 -10 10 -10 16 0 14 7 11 14 -7z m-697 -455 c35 -6 62 -13 60 -15 -2 -2
-42 2 -88 10 -46 8 -73 14 -60 15 13 1 53 -4 88 -10z m7021 4 c-10 -2 -26 -2
-35 0 -10 3 -2 5 17 5 19 0 27 -2 18 -5z m-94 -13 c-23 -5 -60 -14 -84 -20
l-42 -11 3 -279 c4 -265 5 -280 24 -295 13 -10 15 -13 4 -9 -14 4 -17 -10 -23
-113 -3 -65 -4 -168 -2 -229 l4 -112 47 -43 c25 -23 56 -57 67 -73 12 -17 -3
-5 -31 27 -93 102 -89 107 -91 -125 0 -111 -3 -204 -6 -207 -2 -3 -4 89 -4
204 0 116 1 443 0 728 l0 517 -27 -5 -28 -5 25 11 c44 21 144 48 175 47 25 0
23 -2 -11 -8z m-6794 -25 c27 -10 30 -14 13 -14 -12 -1 -23 -7 -26 -13 -2 -7
-3 -5 -2 4 2 11 -7 21 -24 27 -14 5 -19 9 -11 9 8 0 31 -6 50 -13z m6595 -35
c-3 -5 -12 -10 -18 -10 -7 0 -6 4 3 10 19 12 23 12 15 0z m-6547 -1695 c51
-56 100 -125 89 -125 -2 0 -16 18 -31 40 -14 22 -49 62 -76 89 l-50 50 0 382
0 383 -38 45 c-20 25 -57 72 -81 104 -24 31 -47 57 -52 57 -15 0 -108 -124
-134 -179 l-26 -54 32 -41 32 -41 -36 34 -36 34 -15 -49 c-8 -27 -15 -41 -15
-31 -2 35 61 178 103 234 57 77 138 152 209 192 l57 32 2 257 c2 141 4 -105 5
-547 l3 -803 58 -63z m1113 1132 c-5 -5 -30 -5 -62 1 l-54 9 63 0 c37 -1 59
-4 53 -10z m-124 -3 c-3 -3 -12 -4 -19 -1 -8 3 -5 6 6 6 11 1 17 -2 13 -5z
m5812 -81 c27 -24 64 -62 83 -86 21 -27 7 -16 -37 29 -39 39 -94 85 -122 104
-29 18 -53 35 -53 37 0 10 84 -44 129 -84z m-5345 31 c68 -23 51 -27 -19 -4
-33 10 -53 19 -44 19 8 1 37 -6 63 -15z m81 -34 c3 -6 -1 -7 -9 -4 -18 7 -21
14 -7 14 6 0 13 -4 16 -10z m3475 -14 c0 -2 -7 -7 -16 -10 -8 -3 -12 -2 -9 4
6 10 25 14 25 6z m-3405 -24 c-3 -3 -11 0 -18 7 -9 10 -8 11 6 5 10 -3 15 -9
12 -12z m3365 4 c0 -2 -27 -20 -60 -39 -74 -44 -79 -39 -7 8 49 32 67 40 67
31z m937 -103 c-3 -10 -5 -4 -5 12 0 17 2 24 5 18 2 -7 2 -21 0 -30z m-4146 0
c13 -16 12 -17 -3 -4 -10 7 -18 15 -18 17 0 8 8 3 21 -13z m3019 -23 c-19 -16
-38 -30 -42 -30 -5 0 -8 -4 -8 -10 0 -6 114 -9 309 -7 170 1 304 -1 298 -5 -7
-4 -932 -7 -2057 -6 -1125 2 -1911 4 -1747 5 193 2 297 7 297 14 0 6 6 6 19
-1 13 -7 479 -10 1435 -10 l1416 0 52 40 c62 47 79 53 28 10z m2150 10 c6 -11
8 -20 6 -20 -3 0 -10 9 -16 20 -6 11 -8 20 -6 20 3 0 10 -9 16 -20z m-1350 5
c0 -2 -30 -14 -67 -25 -93 -29 -167 -72 -238 -139 l-60 -56 50 54 c65 69 136
115 227 145 77 26 88 29 88 21z m-3779 -22 c13 -16 12 -17 -3 -4 -10 7 -18 15
-18 17 0 8 8 3 21 -13z m-2831 -18 c0 -8 -7 -15 -15 -15 -16 0 -20 12 -8 23
11 12 23 8 23 -8z m1589 -50 c80 -44 146 -108 178 -173 23 -47 28 -72 31 -152
2 -52 0 -105 -5 -118 -6 -16 -9 2 -8 60 0 80 -1 83 -22 80 -13 -2 -23 2 -23 7
0 6 -7 11 -16 11 -14 0 -14 -1 0 -16 9 -8 16 -21 15 -27 0 -9 -2 -8 -6 1 -2 6
-11 12 -19 12 -8 0 -17 7 -20 15 -8 21 -31 19 -44 -5 -10 -19 -11 -19 -32 2
l-21 21 -13 -24 c-7 -13 -13 -19 -14 -14 0 6 -16 15 -36 21 -31 10 -38 9 -52
-7 -12 -14 -18 -15 -24 -6 -6 9 -10 8 -18 -3 -8 -13 -13 -9 -12 10 0 3 -17 6
-39 6 -31 1 -37 -1 -29 -11 9 -11 7 -12 -10 -8 -14 4 -19 11 -15 21 5 13 3 13
-11 1 -13 -11 -18 -11 -21 -1 -6 17 -23 15 -45 -5 -10 -9 -21 -13 -25 -9 -4 4
-1 11 7 16 12 8 10 10 -7 10 -13 0 -23 -5 -23 -11 0 -7 -10 -9 -25 -5 -17 4
-25 2 -25 -6 0 -10 -2 -10 -9 1 -6 9 -10 10 -16 2 -5 -9 -10 -9 -20 -1 -16 14
-35 5 -35 -16 0 -8 -7 -14 -16 -14 -24 0 -13 -94 20 -165 47 -104 105 -160
205 -202 31 -12 49 -23 41 -23 -35 0 -137 60 -178 104 -164 179 -141 455 49
589 76 54 126 67 239 64 84 -2 102 -6 149 -32z m5348 -67 c-2 -18 -4 -4 -4 32
0 36 2 50 4 33 2 -18 2 -48 0 -65z m1077 32 c5 -17 4 -20 -2 -10 -5 8 -13 26
-16 40 -5 17 -4 20 2 10 5 -8 13 -26 16 -40z m-5679 -31 c11 -12 -1 -5 -27 16
-27 22 -48 41 -48 43 0 7 56 -36 75 -59z m5240 -7 c-3 -3 -11 0 -18 7 -9 10
-8 11 6 5 10 -3 15 -9 12 -12z m452 -14 c-3 -8 -6 -5 -6 6 -1 11 2 17 5 13 3
-3 4 -12 1 -19z m-7242 -108 c49 -49 87 -90 85 -90 -3 0 -46 41 -95 90 -49 50
-87 90 -85 90 3 0 46 -40 95 -90z m7252 58 c-3 -7 -5 -2 -5 12 0 14 2 19 5 13
2 -7 2 -19 0 -25z m-639 -15 c-20 -21 -41 -49 -48 -61 -6 -13 -14 -21 -17 -18
-7 7 34 66 66 93 40 35 39 27 -1 -14z m-6811 -15 c-3 -7 -5 -2 -5 12 0 14 2
19 5 13 2 -7 2 -19 0 -25z m5653 14 c0 -5 -7 -17 -15 -28 -14 -18 -14 -17 -4
9 12 27 19 34 19 19z m1818 -182 c4 1 36 7 72 15 36 8 79 14 95 13 26 -1 27
-1 5 -5 -224 -35 -441 -152 -544 -292 l-36 -49 -2 -248 -2 -249 -6 235 -5 235
-27 -35 c-43 -57 -95 -160 -124 -245 -21 -62 -29 -108 -34 -205 l-7 -125 -1
101 c-2 131 21 225 93 370 49 99 54 115 45 140 l-10 29 19 -24 19 -25 21 35
c12 19 19 40 16 48 -3 8 0 11 7 9 7 -3 29 14 48 37 19 23 63 64 96 90 35 28
60 55 59 64 -1 9 0 10 2 4 6 -17 1 -19 98 29 l85 42 2 96 2 95 3 -92 c2 -51 7
-93 11 -93z m-1116 113 c-5 -76 -10 -83 -11 -15 0 34 2 62 7 62 4 0 6 -21 4
-47z m-161 30 c-9 -4 -1 -13 22 -27 92 -55 160 -112 229 -188 76 -84 159 -198
145 -198 -2 0 -20 24 -39 53 -80 120 -292 315 -362 333 l-26 6 0 -138 1 -139
121 -110 c119 -107 273 -271 319 -337 29 -43 13 -26 -107 111 -93 107 -307
311 -326 311 -5 0 -8 -136 -8 -302 0 -167 -1 -391 -2 -498 -2 -107 -5 100 -8
460 -5 700 -7 669 40 669 12 -1 12 -2 1 -6z m-1411 -26 c355 -1 -169 -3 -1165
-4 -995 -2 -1805 1 -1798 5 10 6 1260 6 2963 -1z m783 6 c-7 -2 -19 -2 -25 0
-7 3 -2 5 12 5 14 0 19 -2 13 -5z m85 0 c-10 -2 -28 -2 -40 0 -13 2 -5 4 17 4
22 1 32 -1 23 -4z m260 -10 c-26 -2 -71 -2 -100 0 -29 2 -8 3 47 3 55 0 79 -1
53 -3z m-5921 -35 c-3 -7 -5 -2 -5 12 0 14 2 19 5 13 2 -7 2 -19 0 -25z m6766
-9 c5 -3 2 -9 -7 -12 -12 -5 -16 0 -16 15 0 12 3 17 8 12 4 -5 11 -12 15 -15z
m-4533 1 c8 -5 11 -10 5 -10 -5 0 -17 5 -25 10 -8 5 -10 10 -5 10 6 0 17 -5
25 -10z m4430 -26 c0 -2 -13 2 -30 11 -16 9 -30 18 -30 21 0 2 14 -2 30 -11
17 -9 30 -18 30 -21z m-1440 12 c0 -2 -17 -15 -37 -28 -21 -14 -71 -58 -112
-99 -68 -68 -70 -69 -25 -16 52 62 174 162 174 143z m2010 -16 c6 -11 8 -20 6
-20 -3 0 -10 9 -16 20 -6 11 -8 20 -6 20 3 0 10 -9 16 -20z m-4855 -81 c34
-37 31 -35 -20 11 -80 72 -85 77 -50 52 17 -11 48 -40 70 -63z m4346 45 c9
-11 2 -9 -18 6 -18 13 -33 25 -33 27 0 8 38 -17 51 -33z m-6381 -9 c19 -19 32
-35 29 -35 -3 0 -20 16 -39 35 -19 19 -32 35 -29 35 3 0 20 -16 39 -35z m-333
3 c-3 -8 -6 -5 -6 6 -1 11 2 17 5 13 3 -3 4 -12 1 -19z m633 12 c0 -5 -2 -10
-4 -10 -3 0 -8 5 -11 10 -3 6 -1 10 4 10 6 0 11 -4 11 -10z m180 -10 c0 -5 -4
-10 -10 -10 -5 0 -10 5 -10 10 0 6 5 10 10 10 6 0 10 -4 10 -10z m6103 -205
c12 -16 -21 14 -73 69 -52 54 -99 106 -103 115 -11 20 147 -144 176 -184z
m-6106 28 c-2 -32 -3 -8 -3 52 0 61 1 87 3 58 2 -29 2 -78 0 -110z m7133 102
c22 -16 46 -38 52 -49 7 -12 -2 -7 -23 13 -18 19 -48 40 -66 47 -80 34 -192 3
-238 -64 -14 -20 -25 -33 -25 -28 0 21 52 75 92 95 62 32 150 26 208 -14z
m-8232 5 c23 -10 42 -22 42 -25 0 -3 -13 1 -30 10 -85 44 -196 18 -251 -58
-16 -22 -29 -36 -29 -32 0 23 59 80 104 101 62 29 107 30 164 4z m1033 -93
c54 -77 69 -116 69 -177 0 -47 1 -50 26 -50 44 0 144 30 183 55 35 21 89 73
126 120 15 19 16 19 4 -5 -7 -14 -36 -48 -65 -77 -59 -57 -129 -89 -219 -99
l-55 -7 -2 -141 -2 -141 -3 143 c-3 139 -4 142 -26 143 -21 2 -21 2 2 6 22 4
23 8 18 62 -6 67 -36 132 -101 215 -25 32 -46 61 -46 65 0 9 45 -46 91 -112z
m2986 10 l1268 -2 -1530 -3 c-1443 -3 -1529 -4 -1505 -20 14 -9 39 -30 55 -47
17 -16 19 -20 5 -8 -14 12 -52 38 -85 59 -33 20 -51 33 -40 29 22 -7 536 -7
544 0 2 3 -4 15 -15 28 -10 13 -7 10 8 -5 l28 -28 1267 -3z m-3942 33 c10 -11
16 -20 13 -20 -3 0 -13 9 -23 20 -10 11 -16 20 -13 20 3 0 13 -9 23 -20z
m5767 -36 c-52 -25 -99 -60 -162 -119 -48 -46 -114 -101 -146 -121 -32 -20
-99 -75 -148 -122 l-91 -85 95 94 c52 52 117 108 144 123 27 16 86 63 130 106
93 88 134 118 191 141 70 29 63 19 -13 -17z m297 -43 c-18 -39 -34 -70 -36
-68 -2 2 6 25 18 51 11 26 19 50 16 52 -10 10 -154 -111 -297 -250 l-155 -150
155 155 c85 86 187 178 225 207 39 28 77 57 85 65 8 7 16 13 18 12 1 -1 -12
-34 -29 -74z m-4659 51 c0 -5 -7 -17 -15 -28 -14 -18 -14 -17 -4 9 12 27 19
34 19 19z m4183 -9 c-67 -2 -179 -2 -250 0 -70 1 -15 3 122 3 138 0 195 -2
128 -3z m-5549 -19 c3 -8 2 -12 -4 -9 -6 3 -10 10 -10 16 0 14 7 11 14 -7z
m8205 -63 c1 -48 -5 -35 -12 24 -4 32 -3 43 3 30 5 -11 9 -35 9 -54z m-8599
-11 c-6 -42 -8 -47 -9 -20 -1 34 8 84 14 78 2 -2 0 -28 -5 -58z m2251 43 c13
-16 12 -17 -3 -4 -17 13 -22 21 -14 21 2 0 10 -8 17 -17z m-1844 -25 c-3 -7
-5 -2 -5 12 0 14 2 19 5 13 2 -7 2 -19 0 -25z m7807 -83 c4 -11 0 -6 -8 10 -8
17 -15 48 -14 70 0 39 1 39 8 -10 4 -27 11 -59 14 -70z m-577 63 c-3 -7 -5 -2
-5 12 0 14 2 19 5 13 2 -7 2 -19 0 -25z m-7220 -20 c-3 -8 -6 -5 -6 6 -1 11 2
17 5 13 3 -3 4 -12 1 -19z m1908 2 c10 -11 16 -20 13 -20 -3 0 -13 9 -23 20
-10 11 -16 20 -13 20 3 0 13 -9 23 -20z m370 -50 c27 -27 47 -50 44 -50 -3 0
-27 23 -54 50 -27 28 -47 50 -44 50 3 0 27 -22 54 -50z m4849 24 c3 -8 2 -12
-4 -9 -6 3 -10 10 -10 16 0 14 7 11 14 -7z m-7137 -16 c-3 -8 -6 -5 -6 6 -1
11 2 17 5 13 3 -3 4 -12 1 -19z m5956 -3 c-3 -9 -8 -14 -10 -11 -3 3 -2 9 2
15 9 16 15 13 8 -4z m838 -31 c12 -25 19 -47 17 -50 -2 -2 -14 19 -25 46 -12
28 -19 50 -17 50 3 0 14 -21 25 -46z m-7159 -41 c6 -7 8 -13 4 -13 -10 0 -46
63 -46 80 1 8 7 0 16 -19 8 -19 19 -41 26 -48z m2383 27 c27 -27 47 -50 44
-50 -3 0 -27 23 -54 50 -27 28 -47 50 -44 50 3 0 27 -22 54 -50z m6136 11
c-13 -24 -69 -71 -84 -71 -6 0 5 11 25 25 21 14 42 34 48 45 6 11 13 20 16 20
2 0 0 -9 -5 -19z m-302 -35 c-2 -2 -13 8 -23 22 l-19 27 24 -22 c12 -12 21
-24 18 -27z m-7881 2 c-8 -13 -34 -36 -57 -53 -36 -25 -52 -30 -114 -31 l-72
-2 71 7 c76 8 133 35 161 77 8 13 18 24 20 24 3 0 -1 -10 -9 -22z m3907 -30
l1470 -3 -1465 -5 c-1560 -5 -1495 -7 -1533 39 -6 7 4 4 23 -8 l35 -21 1470
-2z m4124 -12 c44 1 50 -1 30 -8 -27 -11 -102 -3 -127 12 -13 8 -9 8 13 3 17
-5 54 -8 84 -7z m-5869 -51 c30 -30 52 -55 49 -55 -2 0 -29 25 -59 55 -30 30
-52 55 -49 55 2 0 29 -25 59 -55z m-687 30 c-3 -9 -8 -14 -10 -11 -3 3 -2 9 2
15 9 16 15 13 8 -4z m-1728 -13 c-3 -3 -11 0 -18 7 -9 10 -8 11 6 5 10 -3 15
-9 12 -12z m775 -130 c19 -31 38 -58 42 -60 5 -2 7 -25 7 -50 l-2 -47 -6 40
c-9 55 -56 137 -115 204 l-50 56 45 -43 c25 -23 60 -68 79 -100z m6347 96 c-3
-8 -6 -5 -6 6 -1 11 2 17 5 13 3 -3 4 -12 1 -19z m-5587 -3 c0 -2 -10 -9 -22
-15 -22 -11 -22 -10 -4 4 21 17 26 19 26 11z m5597 -47 c-3 -7 -5 -2 -5 12 0
14 2 19 5 13 2 -7 2 -19 0 -25z m-5672 -1 c-64 -47 -164 -138 -185 -167 -23
-32 -21 -51 2 -33 7 6 49 23 93 38 107 36 295 46 406 21 93 -21 154 -54 155
-84 2 -21 1 -21 -3 -1 -6 26 -89 66 -156 75 -44 6 -46 6 -50 -22 -4 -28 -4
-27 -6 5 l-1 33 -117 -5 c-129 -5 -242 -31 -327 -74 -79 -40 -189 -156 -231
-244 -19 -40 -35 -65 -35 -56 0 10 -7 31 -15 47 -9 17 -13 30 -11 30 3 0 12
-12 19 -27 l14 -26 14 39 c7 21 12 46 11 54 -2 11 0 11 5 3 6 -8 23 7 55 46
25 32 69 76 97 97 27 22 50 46 51 54 0 25 213 221 238 220 4 0 -6 -11 -23 -23z
m1373 -12 c-3 -3 -9 2 -12 12 -6 14 -5 15 5 6 7 -7 10 -15 7 -18z m-2011 -62
c-3 -10 -5 -2 -5 17 0 19 2 27 5 18 2 -10 2 -26 0 -35z m6320 -50 c-2 -21 -4
-6 -4 32 0 39 2 55 4 38 2 -18 2 -50 0 -70z m-4242 47 c21 -22 37 -40 34 -40
-3 0 -23 18 -44 40 -21 22 -37 40 -34 40 3 0 23 -18 44 -40z m-360 10 c10 -11
16 -20 13 -20 -3 0 -13 9 -23 20 -10 11 -16 20 -13 20 3 0 13 -9 23 -20z
m3265 -3 c0 -1 -37 -38 -82 -82 l-83 -80 80 83 c74 76 85 87 85 79z m-390 -31
c0 -2 -8 -10 -17 -17 -16 -13 -17 -12 -4 4 13 16 21 21 21 13z m1690 -36 c30
-43 18 -37 -16 7 -15 20 -23 33 -16 29 6 -3 21 -20 32 -36z m-6090 -5 c0 -5
-5 -3 -10 5 -5 8 -10 20 -10 25 0 6 5 3 10 -5 5 -8 10 -19 10 -25z m4356 6
c-4 -5 -27 -16 -52 -25 -53 -18 -323 -32 -366 -19 -16 5 39 9 145 10 146 1
180 4 222 21 28 11 51 20 53 21 2 1 1 -3 -2 -8z m-2317 -27 c10 -9 -35 -3 -49
6 -11 8 -7 9 15 4 17 -4 32 -8 34 -10z m-2021 -49 c0 -16 -2 -15 -8 5 -11 34
-11 60 0 35 5 -11 8 -29 8 -40z m2110 38 c-16 -2 -40 -2 -55 0 -16 2 -3 4 27
4 30 0 43 -2 28 -4z m1133 -5 c-101 -5 -187 -6 -192 -1 -4 4 78 9 184 10 l192
1 -184 -10z m372 5 c-29 -2 -78 -2 -110 0 -32 2 -8 3 52 3 61 0 87 -1 58 -3z
m220 0 c-24 -2 -62 -2 -85 0 -24 2 -5 4 42 4 47 0 66 -2 43 -4z m-1380 -10
c-51 -2 -135 -2 -185 0 -51 1 -10 3 92 3 102 0 143 -2 93 -3z m3684 -46 c18
-29 42 -68 54 -87 34 -54 7 -23 -42 50 -59 86 -62 90 -52 90 4 0 23 -24 40
-53z m-6335 -16 c2 -22 0 -37 -4 -35 -8 5 -11 74 -4 74 2 0 6 -18 8 -39z
m5991 32 c-13 -2 -35 -2 -50 0 -16 2 -5 4 22 4 28 0 40 -2 28 -4z m-126 -9
c-3 -3 -12 -4 -19 -1 -8 3 -5 6 6 6 11 1 17 -2 13 -5z m1122 -9 c87 -30 142
-96 108 -129 -21 -22 -155 -106 -236 -149 l-71 -37 -2 -58 -2 -57 -3 53 c-4
48 -6 51 -20 37 -12 -13 -16 -40 -16 -128 l0 -112 -6 110 -6 110 -127 -124
c-81 -79 -128 -132 -128 -145 0 -13 -3 -17 -8 -9 -5 7 -38 -19 -96 -77 l-90
-89 1 -63 0 -63 -6 60 -6 60 -22 -22 c-24 -24 -189 -145 -213 -156 -8 -4 -28
-16 -45 -26 -16 -11 -34 -20 -39 -20 -6 -1 37 30 95 67 57 38 131 90 164 116
76 61 375 368 368 379 -3 5 -20 -6 -38 -23 -24 -23 -34 -28 -39 -18 -3 7 -4 3
-2 -9 6 -36 -18 -48 -38 -19 -10 15 -12 27 -6 31 6 3 10 11 10 16 0 6 -7 4
-15 -5 -8 -8 -12 -22 -8 -31 5 -14 2 -16 -15 -11 -11 4 -23 2 -27 -4 -5 -8
-11 -8 -21 1 -8 6 -14 8 -14 3 0 -5 -5 -1 -11 9 -14 25 -32 22 -19 -3 13 -25
5 -40 -22 -40 -18 0 -19 2 -7 17 12 15 12 16 -3 10 -10 -3 -18 -2 -18 3 0 6
-5 10 -10 10 -6 0 -8 -12 -4 -27 l6 -28 -22 25 c-15 17 -20 19 -16 8 4 -13 0
-18 -14 -18 -14 0 -18 -5 -13 -17 4 -11 3 -14 -5 -9 -7 4 -12 14 -12 22 0 11
-4 12 -19 4 -26 -14 -41 -13 -41 3 0 7 -5 18 -12 25 -9 9 -17 6 -35 -15 -19
-24 -22 -25 -23 -9 0 18 -1 18 -12 4 -15 -18 -58 -30 -58 -16 0 14 -79 -1
-110 -21 -14 -8 -51 -41 -82 -72 -32 -30 -58 -53 -58 -49 0 4 35 42 78 84 194
194 442 287 882 331 94 10 390 168 390 209 0 20 -41 53 -93 76 -128 57 -277
24 -396 -87 -57 -54 -120 -154 -122 -192 -1 -21 -3 -19 -8 9 -4 19 -11 46 -15
59 -6 16 -5 21 3 17 6 -4 11 -14 11 -22 0 -27 15 -13 50 48 49 85 138 158 235
192 53 19 172 20 224 1z m-5108 -12 c13 -16 12 -17 -3 -4 -17 13 -22 21 -14
21 2 0 10 -8 17 -17z m2919 14 c0 -2 -10 -12 -22 -23 l-23 -19 19 23 c18 21
26 27 26 19z m777 -19 c-3 -8 -6 -5 -6 6 -1 11 2 17 5 13 3 -3 4 -12 1 -19z
m240 16 c-3 -3 -12 -4 -19 -1 -8 3 -5 6 6 6 11 1 17 -2 13 -5z m-5610 -96 c-2
-18 -4 -4 -4 32 0 36 2 50 4 33 2 -18 2 -48 0 -65z m890 40 c-3 -7 -5 -2 -5
12 0 14 2 19 5 13 2 -7 2 -19 0 -25z m3643 8 c0 -2 -12 -11 -27 -20 l-28 -17
24 20 c23 21 31 25 31 17z m-4628 -101 c25 -35 18 -29 -48 45 -39 44 -41 48
-10 20 21 -19 47 -48 58 -65z m4568 60 c0 -2 -10 -9 -22 -15 -22 -11 -22 -10
-4 4 21 17 26 19 26 11z m-5005 -102 c17 -11 67 -39 112 -62 74 -38 96 -44
230 -61 81 -11 182 -27 223 -36 91 -20 285 -86 350 -119 26 -13 50 -21 54 -18
3 4 6 0 6 -8 0 -8 20 -25 45 -38 42 -22 64 -50 29 -37 -13 5 -14 3 -6 -6 7 -9
7 -18 -3 -31 -10 -14 -14 -15 -18 -5 -5 11 -7 11 -15 0 -7 -11 -10 -11 -15 3
-4 9 -3 14 2 11 5 -3 11 0 14 7 4 10 -5 12 -30 10 -20 -1 -38 -5 -42 -9 -3 -4
4 -4 17 -1 13 3 22 1 22 -6 0 -8 -19 -12 -50 -12 -43 0 -50 3 -51 20 -1 15 -2
16 -6 4 -3 -11 -11 -15 -24 -12 -24 7 -25 -5 -1 -23 16 -12 15 -13 -5 -8 -12
4 -24 12 -27 20 -7 17 -27 19 -22 2 1 -7 1 -10 -1 -5 -8 13 -23 7 -24 -10 0
-14 -2 -15 -6 -3 -17 42 -63 55 -63 18 0 -19 2 -20 10 -8 6 9 10 10 10 3 0
-18 -21 -27 -30 -13 -4 7 -13 9 -19 6 -6 -4 -11 -2 -11 4 0 6 7 13 15 16 21 8
19 21 -5 27 -10 3 -19 2 -18 -2 3 -24 -4 -33 -23 -28 -23 6 -49 -1 -49 -13 0
-4 11 -6 25 -5 17 2 25 -2 25 -12 0 -13 -3 -13 -16 -3 -12 11 -18 10 -31 -3
-15 -15 -8 -23 78 -105 134 -127 182 -167 263 -219 82 -54 105 -72 59 -49 -17
9 -35 20 -38 26 -15 24 -24 5 -28 -57 l-4 -68 1 70 1 70 -55 41 c-30 23 -86
69 -125 102 -48 42 -73 57 -78 49 -6 -8 -7 -6 -4 4 4 11 -10 31 -39 58 -25 22
-46 41 -49 41 -2 0 -6 -24 -8 -52 l-3 -53 -2 63 c-2 62 -2 63 -61 124 -56 57
-60 59 -64 37 -5 -22 -5 -22 -4 2 2 30 -20 62 -36 52 -5 -3 -7 -1 -4 4 4 6
-33 48 -81 93 l-87 83 -7 -39 -6 -39 1 43 c1 28 -4 46 -13 52 -24 15 -30 12
-31 -17 -1 -25 -2 -24 -8 6 -11 63 -30 48 -34 -26 l-4 -68 1 71 1 71 -40 23
c-86 49 -146 93 -167 123 -19 29 -17 28 23 -9 24 -22 58 -50 74 -61z m5902 65
c-3 -7 -5 -2 -5 12 0 14 2 19 5 13 2 -7 2 -19 0 -25z m863 -38 c11 -22 18 -40
15 -40 -2 0 -14 18 -25 40 -11 22 -18 40 -15 40 2 0 14 -18 25 -40z m-4213
-26 c-3 -3 -12 -4 -19 -1 -8 3 -5 6 6 6 11 1 17 -2 13 -5z m2230 0 c-3 -3 -12
-4 -19 -1 -8 3 -5 6 6 6 11 1 17 -2 13 -5z m-44 -11 c-7 -2 -19 -2 -25 0 -7 3
-2 5 12 5 14 0 19 -2 13 -5z m-2866 -205 c-1 -40 -3 -10 -3 67 0 77 1 110 3
73 2 -37 2 -100 0 -140z m1176 195 c-73 -2 -193 -2 -265 0 -73 1 -14 3 132 3
146 0 205 -2 133 -3z m315 0 c-26 -2 -71 -2 -100 0 -29 2 -8 3 47 3 55 0 79
-1 53 -3z m135 0 c-13 -2 -35 -2 -50 0 -16 2 -5 4 22 4 28 0 40 -2 28 -4z
m115 0 c-16 -2 -40 -2 -55 0 -16 2 -3 4 27 4 30 0 43 -2 28 -4z m405 0 c-7 -2
-21 -2 -30 0 -10 3 -4 5 12 5 17 0 24 -2 18 -5z m200 0 c-7 -2 -21 -2 -30 0
-10 3 -4 5 12 5 17 0 24 -2 18 -5z m410 0 c-24 -2 -62 -2 -85 0 -24 2 -5 4 42
4 47 0 66 -2 43 -4z m3405 -72 c30 -21 69 -73 43 -57 -6 4 -11 1 -11 -6 0 -7
-7 -2 -16 10 -18 26 -33 21 -35 -11 -1 -18 -2 -19 -6 -4 -5 20 -30 17 -25 -3
2 -10 0 -11 -11 -2 -8 7 -17 9 -20 5 -4 -3 -7 -1 -7 6 0 7 -6 11 -12 8 -7 -2
-21 0 -30 4 -10 6 -19 5 -23 -2 -5 -7 -13 -5 -26 7 -10 9 -25 14 -35 10 -30
-11 5 23 45 45 48 26 126 21 169 -10z m-6404 -25 c44 -18 76 -61 75 -100 l-1
-31 -13 35 c-7 19 -17 34 -23 33 -5 -1 -9 5 -8 15 0 9 -6 17 -14 18 -36 3 -41
4 -36 12 2 4 -4 8 -14 8 -10 0 -16 -4 -14 -8 3 -4 -5 -8 -18 -8 -13 0 -29 -5
-36 -12 -9 -9 -12 -8 -12 5 0 9 -5 17 -11 17 -5 0 -8 -4 -5 -9 3 -5 -1 -11 -9
-14 -10 -4 -12 -1 -7 11 4 12 -2 10 -25 -8 -29 -23 -32 -30 -34 -90 -2 -58 -3
-60 -6 -17 -2 26 -7 47 -11 47 -3 0 -24 -17 -47 -37 -32 -31 -31 -28 8 12 26
28 47 56 47 62 0 6 21 25 47 42 52 35 110 41 167 17z m4197 -7 c21 -12 52 -43
70 -68 18 -25 26 -40 17 -33 -16 12 -17 7 -21 -55 l-3 -68 -2 76 c-2 73 -3 77
-27 83 -14 4 -25 11 -25 17 0 6 6 7 13 3 8 -5 8 -2 -2 9 -14 18 -26 23 -16 8
3 -5 -8 -9 -24 -9 -17 1 -29 4 -27 7 2 3 -2 12 -10 19 -8 7 -14 8 -14 3 0 -13
-29 -41 -41 -41 -6 0 -8 4 -4 9 3 6 -3 9 -12 9 -10 0 -26 3 -36 7 -13 6 -16 4
-11 -9 4 -10 1 -16 -9 -16 -15 0 -22 -43 -30 -200 -2 -30 -4 -12 -5 41 -3 153
4 183 47 207 49 29 121 29 172 1z m-64 -41 c-3 -8 -6 -5 -6 6 -1 11 2 17 5 13
3 -3 4 -12 1 -19z m-4187 8 c0 -2 -7 -6 -15 -10 -8 -3 -15 -1 -15 4 0 6 7 10
15 10 8 0 15 -2 15 -4z m5917 -63 c-2 -16 -4 -5 -4 22 0 28 2 40 4 28 2 -13 2
-35 0 -50z m-470 -50 c-3 -10 -5 -2 -5 17 0 19 2 27 5 18 2 -10 2 -26 0 -35z
m-6770 -40 c-2 -16 -4 -5 -4 22 0 28 2 40 4 28 2 -13 2 -35 0 -50z m-230 -5
c-2 -13 -4 -3 -4 22 0 25 2 35 4 23 2 -13 2 -33 0 -45z m90 10 c-2 -13 -4 -5
-4 17 -1 22 1 32 4 23 2 -10 2 -28 0 -40z m1591 -40 l-2 -93 -5 80 c-6 75 -4
105 5 105 2 0 3 -42 2 -92z m5409 -20 c-2 -24 -4 -7 -4 37 0 44 2 63 4 43 2
-21 2 -57 0 -80z m-5787 68 c0 -2 -8 -10 -17 -17 -16 -13 -17 -12 -4 4 13 16
21 21 21 13z m-1263 -28 c-3 -8 -6 -5 -6 6 -1 11 2 17 5 13 3 -3 4 -12 1 -19z
m7150 -145 c-2 -32 -3 -8 -3 52 0 61 1 87 3 58 2 -29 2 -78 0 -110z m-7100
115 c-3 -8 -6 -5 -6 6 -1 11 2 17 5 13 3 -3 4 -12 1 -19z m-140 -45 c-3 -10
-5 -4 -5 12 0 17 2 24 5 18 2 -7 2 -21 0 -30z m6483 28 c0 -6 -4 -13 -10 -16
-5 -3 -10 1 -10 9 0 9 5 16 10 16 6 0 10 -4 10 -9z m334 -7 c3 -8 2 -12 -4 -9
-6 3 -10 1 -10 -6 0 -7 -2 -10 -5 -7 -5 5 4 38 10 38 2 0 6 -7 9 -16z m-5634
-81 c43 -45 51 -55 18 -24 -31 29 -61 50 -67 47 -7 -5 -9 -1 -5 8 3 9 1 16 -5
16 -6 0 -11 -5 -11 -11 0 -5 -4 -7 -10 -4 -5 3 -10 1 -10 -4 0 -6 -4 -11 -10
-11 -16 0 1 30 19 31 10 0 11 2 4 6 -14 5 -18 23 -5 23 4 0 41 -35 82 -77z
m5100 47 c0 -5 -2 -10 -4 -10 -3 0 -8 5 -11 10 -3 6 -1 10 4 10 6 0 11 -4 11
-10z m-4383 -32 c-3 -7 -5 -2 -5 12 0 14 2 19 5 13 2 -7 2 -19 0 -25z m5020
-90 c-2 -24 -4 -5 -4 42 0 47 2 66 4 43 2 -24 2 -62 0 -85z m180 30 c-2 -13
-4 -5 -4 17 -1 22 1 32 4 23 2 -10 2 -28 0 -40z m-6560 -65 c-2 -21 -4 -6 -4
32 0 39 2 55 4 38 2 -18 2 -50 0 -70z m6600 55 c-3 -8 -6 -5 -6 6 -1 11 2 17
5 13 3 -3 4 -12 1 -19z m-410 -60 c-3 -7 -5 -2 -5 12 0 14 2 19 5 13 2 -7 2
-19 0 -25z m510 -70 c-3 -8 -6 -5 -6 6 -1 11 2 17 5 13 3 -3 4 -12 1 -19z
m-3432 -3 c33 -9 80 -26 105 -37 83 -40 200 -169 238 -263 13 -32 13 -32 -34
30 -12 16 -14 17 -10 3 3 -10 1 -18 -4 -18 -6 0 -10 8 -10 18 0 14 -2 15 -10
2 -8 -12 -10 -12 -11 5 0 11 -3 14 -6 8 -2 -7 -14 -13 -25 -13 -15 0 -19 5
-15 20 3 11 1 18 -4 14 -5 -3 -9 -15 -9 -27 0 -16 -3 -19 -9 -8 -5 7 -13 11
-18 8 -5 -3 -22 0 -37 8 -20 11 -33 12 -47 4 -11 -5 -24 -7 -29 -4 -6 4 -18
-1 -27 -11 -16 -15 -17 -15 -26 7 -8 20 -11 21 -14 7 -3 -10 -9 -18 -14 -18
-6 0 -7 9 -4 21 6 19 5 20 -8 8 -8 -8 -13 -17 -10 -21 2 -5 -1 -8 -6 -8 -6 0
-11 4 -11 10 0 6 -9 6 -25 0 -27 -10 -33 -2 -13 18 8 8 9 12 1 12 -6 0 -18 -7
-26 -15 -12 -11 -17 -12 -20 -2 -4 8 -8 9 -14 1 -13 -17 -43 -25 -43 -11 0 8
-3 8 -9 -2 -5 -8 -16 -11 -26 -8 -9 4 -14 11 -11 15 7 12 -26 11 -41 -1 -9 -6
-13 -5 -13 3 0 9 -7 7 -20 -5 -16 -15 -20 -15 -20 -3 0 8 -7 15 -15 15 -8 0
-15 -3 -15 -7 0 -9 -78 -6 -87 3 -12 12 -34 7 -28 -5 4 -7 -1 -4 -9 6 -9 12
-16 14 -16 7 0 -8 -7 -10 -19 -6 -12 4 -21 0 -25 -11 -4 -9 -9 -14 -12 -11
-10 10 62 112 108 153 124 109 295 150 453 109z m995 -75 c123 -48 256 -163
310 -270 16 -32 11 -26 -39 40 -45 59 -168 171 -185 168 -6 -1 -21 4 -34 10
-27 15 -174 63 -179 59 -2 -2 40 -21 92 -41 69 -28 108 -50 143 -83 38 -36 40
-39 11 -19 -75 54 -267 128 -394 152 l-40 7 30 8 c17 4 68 6 115 5 67 -3 103
-10 170 -36z m-4123 -32 c-2 -13 -4 -5 -4 17 -1 22 1 32 4 23 2 -10 2 -28 0
-40z m3963 3 c127 -41 314 -137 336 -173 4 -6 -6 -2 -23 10 -40 28 -51 28 -27
0 20 -24 12 -19 -52 30 -75 59 -347 152 -447 152 -25 0 -29 3 -17 11 24 17
128 3 230 -30z m1897 7 c-3 -7 -5 -2 -5 12 0 14 2 19 5 13 2 -7 2 -19 0 -25z
m-4779 -20 c217 -89 364 -259 394 -456 l12 -72 215 0 c129 0 210 4 202 9 -8 5
-24 8 -35 7 -16 -2 -22 3 -24 18 -1 14 2 16 7 8 4 -7 15 -10 24 -6 10 3 17 1
17 -5 0 -6 5 -11 10 -11 6 0 10 9 10 20 0 11 -4 20 -10 20 -5 0 -10 4 -10 10
0 5 7 7 15 4 8 -4 15 -1 15 5 0 6 -5 11 -11 11 -5 0 -7 5 -4 11 5 6 12 4 20
-8 9 -12 10 -20 3 -24 -6 -4 -7 -9 0 -13 15 -9 43 29 36 48 -4 11 -2 16 7 14
10 -2 13 5 11 22 -4 24 -3 25 12 5 13 -17 15 -18 16 -3 0 9 -3 19 -8 21 -12 8
-62 -4 -62 -15 0 -6 7 -8 15 -4 8 3 15 1 15 -4 0 -6 -3 -11 -7 -11 -22 -4 -60
-10 -71 -11 -7 -1 -11 -7 -8 -15 4 -11 1 -11 -14 -3 -11 6 -20 13 -20 16 0 3
5 2 10 -1 6 -3 10 -1 10 5 0 6 6 10 13 9 23 -3 37 1 37 10 0 5 -12 8 -27 6
-16 -2 -28 -4 -28 -5 0 -1 -7 -3 -16 -5 -9 -1 -26 -6 -38 -10 -30 -9 -26 2 7
18 57 30 262 50 262 26 0 -5 5 -7 12 -3 7 4 8 3 4 -4 -4 -7 -2 -12 3 -12 6 0
11 6 11 13 0 9 2 9 8 -1 5 -7 18 -14 30 -17 32 -6 66 -32 53 -40 -6 -3 -11 -2
-11 3 0 16 -52 25 -61 10 -10 -15 26 -32 44 -21 7 4 6 0 -1 -10 -12 -14 -11
-16 15 -14 23 2 28 -2 30 -23 2 -24 2 -24 -5 -2 -4 13 -11 22 -17 21 -19 -5
-37 -30 -31 -44 3 -8 1 -15 -3 -15 -15 0 -22 33 -9 42 10 8 10 11 0 15 -6 2
-10 9 -6 14 3 5 1 9 -5 9 -16 0 -22 -18 -9 -24 10 -5 10 -7 1 -12 -9 -4 -9
-11 -1 -30 l11 -24 1994 0 c1096 0 1993 4 1993 8 0 5 -7 17 -16 28 -14 18 -15
18 -10 -6 3 -14 3 -19 0 -11 -5 11 -8 11 -16 0 -6 -10 -7 -6 -3 11 6 25 6 25
-11 5 -16 -19 -16 -19 -10 10 6 29 6 29 -7 7 -12 -20 -15 -21 -26 -8 -7 8 -19
12 -27 9 -15 -6 -19 7 -6 23 4 5 -2 0 -14 -11 -12 -12 -23 -27 -26 -35 -8 -22
-28 58 -28 111 0 130 77 237 201 278 62 20 168 17 221 -6 101 -45 172 -142
185 -253 6 -53 -11 -140 -30 -152 -7 -4 237 -8 542 -8 305 0 552 -2 549 -5 -7
-7 -1383 -14 -3025 -15 -973 0 -1243 -3 -1243 -13 0 -8 -2 -9 -8 -1 -10 17
-81 12 -92 -6 -9 -13 -10 -13 -10 0 0 22 -41 23 -56 2 -13 -16 -13 -16 -14 1
0 13 -4 16 -17 9 -16 -7 -38 -9 -45 -2 -9 7 -145 4 -155 -3 -8 -6 -13 -6 -13
0 0 13 -261 14 -277 1 -9 -7 -13 -7 -13 0 0 7 -182 11 -572 11 -1548 2 -3772
11 -3776 16 -3 3 445 5 996 5 l1002 0 0 38 c1 104 62 252 134 321 19 19 32 39
29 45 -3 6 -3 8 1 4 5 -4 33 10 65 31 143 97 223 122 386 118 102 -3 130 -7
183 -29z m2762 1 c25 -5 81 -24 125 -41 44 -17 102 -39 128 -49 48 -18 165
-97 166 -111 1 -5 -22 9 -50 29 -29 20 -98 53 -158 74 -58 21 -131 46 -161 57
-67 24 -129 38 -115 25 6 -5 28 -15 50 -22 74 -23 145 -53 145 -61 0 -4 20
-11 44 -14 61 -9 175 -67 211 -107 l30 -33 -34 28 c-46 37 -113 69 -191 91
-36 10 -72 24 -80 31 -8 7 -40 20 -70 29 -30 10 -80 28 -110 41 -30 12 -68 25
-84 29 -22 5 -26 9 -16 15 15 9 102 4 170 -11z m-4732 -35 c111 -37 187 -90
264 -186 32 -41 31 -52 -1 -16 -16 17 -23 19 -35 9 -10 -8 -16 -9 -21 -1 -9
14 4 32 17 24 7 -5 8 -2 3 6 -6 10 -12 8 -27 -9 -10 -13 -18 -19 -19 -15 0 5
-4 0 -9 -11 -8 -19 -9 -19 -9 2 -1 16 -7 21 -22 20 -14 -1 -19 -7 -16 -18 3
-12 0 -16 -9 -12 -7 2 -10 11 -8 18 7 16 -12 29 -21 15 -5 -7 -12 -5 -22 7
-13 17 -14 17 -9 1 3 -12 0 -18 -9 -18 -8 0 -15 -4 -15 -10 0 -5 -4 -10 -10
-10 -5 0 -10 6 -10 13 0 6 -11 12 -24 12 -16 0 -22 -4 -18 -14 4 -10 -5 -7
-25 7 -18 12 -34 18 -37 13 -4 -5 -26 -8 -51 -5 -27 2 -45 0 -45 -6 0 -5 -6
-10 -14 -10 -10 0 -13 8 -11 23 4 19 2 20 -8 7 -7 -9 -20 -14 -29 -12 -26 5
-22 -7 5 -18 21 -8 21 -9 -5 -9 -18 -1 -28 4 -28 13 0 9 -7 12 -20 9 -11 -3
-20 -9 -20 -14 0 -5 -9 -4 -19 3 -11 7 -18 16 -15 20 3 4 -3 5 -12 1 -12 -4
-15 -3 -10 5 4 7 2 12 -3 12 -14 0 -14 -17 -1 -25 14 -9 12 -22 -4 -28 -10 -4
-13 -1 -9 9 4 12 0 14 -21 8 -24 -6 -38 8 -18 19 4 2 1 2 -7 0 -8 -2 -18 1
-21 8 -6 8 -9 8 -14 0 -4 -6 -2 -11 3 -11 6 0 11 -4 11 -9 0 -5 -11 -4 -25 2
-16 8 -23 17 -19 27 4 12 3 12 -7 3 -7 -7 -24 -9 -41 -6 -21 4 -27 2 -25 -8 2
-8 2 -11 0 -6 -3 4 -10 4 -16 0 -7 -4 0 9 14 28 15 18 54 53 87 75 148 102
318 125 490 68z m6150 9 c88 -35 182 -94 227 -144 59 -65 147 -214 115 -194
-6 3 -10 11 -10 17 0 18 -97 143 -150 192 -49 46 -140 97 -170 95 -13 -1 -13
-1 0 -6 94 -33 193 -112 232 -185 10 -17 27 -42 38 -55 22 -25 44 -73 37 -80
-3 -2 -10 10 -17 26 -7 17 -18 36 -26 42 -8 6 -26 32 -40 58 -14 25 -47 62
-72 81 -54 39 -212 110 -245 109 -12 0 4 -9 36 -19 32 -11 84 -33 116 -50 62
-34 169 -125 158 -136 -4 -4 -24 9 -46 29 -64 58 -111 84 -206 118 -78 27 -99
30 -154 25 -80 -7 -203 -47 -264 -86 -39 -25 -74 -64 -145 -167 -7 -10 2 10
20 45 81 156 146 195 398 241 l55 10 -60 -5 c-187 -15 -322 -79 -382 -181 -14
-24 -28 -43 -32 -43 -3 0 -12 -14 -20 -31 -7 -16 -15 -28 -17 -26 -6 6 28 87
38 87 4 0 8 4 8 10 0 20 -28 -3 -49 -40 -29 -51 -38 -52 -12 -2 33 65 138 159
226 203 44 22 69 37 55 34 -106 -29 -254 -147 -315 -249 -40 -69 -46 -67 -11
2 53 102 159 202 265 249 87 39 149 52 254 52 84 1 108 -3 165 -26z m1924 13
c29 -7 71 -22 93 -31 l40 -18 -32 -7 c-17 -4 -51 -19 -75 -33 -45 -26 -128
-108 -128 -127 0 -5 -4 -10 -10 -10 -12 0 8 48 31 75 10 11 18 25 19 30 0 6
24 25 53 43 60 37 47 43 -21 8 -57 -29 -73 -47 -98 -108 -10 -27 -22 -48 -26
-48 -4 0 2 20 13 45 29 65 19 75 -19 21 -34 -47 -51 -61 -33 -28 22 41 102
119 140 137 22 11 41 23 41 27 0 14 -55 -14 -109 -54 -50 -38 -69 -56 -106
-103 -14 -17 -14 -15 1 15 21 44 62 100 74 100 5 0 26 11 46 25 20 14 31 25
25 25 -29 0 -93 -44 -135 -92 -25 -29 -46 -47 -46 -40 0 7 29 43 65 79 35 37
63 69 60 71 -6 6 -104 -88 -147 -141 -21 -27 -38 -45 -38 -40 0 17 39 70 87
120 53 54 45 57 -23 11 -45 -30 -60 -35 -48 -16 4 7 3 8 -5 4 -6 -4 -9 -11 -6
-15 2 -5 -7 -19 -20 -31 -14 -13 -25 -20 -25 -16 0 4 10 16 23 27 31 26 10 23
-40 -5 -23 -13 -40 -19 -37 -12 3 7 25 22 51 35 25 12 43 24 40 28 -6 5 -68
-24 -142 -67 -45 -26 -39 -17 20 26 119 90 305 127 447 90z m-1415 -28 c-3 -7
-5 -2 -5 12 0 14 2 19 5 13 2 -7 2 -19 0 -25z m-2021 -8 c36 -16 90 -37 122
-46 31 -9 62 -21 67 -26 18 -19 -67 2 -175 44 -154 58 -151 57 -112 57 19 1
63 -12 98 -29z m-34 -39 c52 -21 113 -44 134 -51 22 -6 73 -25 114 -40 41 -16
84 -31 94 -34 10 -4 17 -9 14 -12 -3 -2 -36 7 -74 21 -38 15 -103 37 -144 51
-41 13 -84 29 -95 34 -11 6 -58 23 -105 39 -52 18 -75 30 -59 30 14 1 69 -16
121 -38z m639 -83 c17 -32 3 -19 -61 55 l-63 72 57 -55 c32 -30 62 -63 67 -72z
m-3951 76 c0 -2 -9 0 -20 6 -11 6 -20 13 -20 16 0 2 9 0 20 -6 11 -6 20 -13
20 -16z m6958 10 c30 -21 28 -31 -8 -39 -17 -4 -51 -21 -78 -39 -26 -18 -54
-36 -62 -40 -18 -9 66 71 101 96 l24 18 -28 -10 c-16 -6 -50 -25 -75 -42 -26
-18 -50 -33 -55 -33 -4 0 -21 -20 -37 -45 -16 -25 -30 -40 -30 -34 0 6 17 35
38 65 29 42 51 61 101 87 73 37 79 38 109 16z m-3693 -30 c33 -12 52 -23 43
-23 -21 -1 -129 38 -143 51 -12 12 17 4 100 -28z m1905 12 c-25 -13 -56 -26
-70 -30 -14 -4 2 7 35 23 71 35 100 40 35 7z m1305 -28 c-69 -76 -69 -75 -56
-51 14 27 85 103 96 103 4 0 -14 -24 -40 -52z m-1679 1 c32 -11 74 -26 93 -32
41 -15 156 -118 178 -161 13 -26 8 -23 -27 17 -38 43 -130 116 -130 103 0 -3
-31 8 -69 24 -87 37 -171 40 -275 9 -120 -35 -191 -89 -232 -174 -25 -52 -28
-36 -3 19 43 98 109 149 249 190 105 31 141 32 216 5z m2228 -8 c3 -5 -6 -14
-22 -19 -15 -5 -36 -13 -46 -18 -15 -6 -17 -4 -11 7 5 8 -10 -1 -33 -19 -23
-19 -42 -30 -42 -26 0 4 -12 -3 -26 -17 l-27 -24 17 27 c16 25 90 78 126 91
24 9 58 8 64 -2z m-3384 -23 c45 -14 93 -38 87 -44 -3 -3 -18 1 -34 9 -15 8
-51 20 -78 26 -62 15 -96 34 -45 25 19 -3 51 -11 70 -16z m-255 -9 c22 -10 29
-16 15 -13 -28 7 -80 33 -65 33 6 0 28 -9 50 -20z m1433 -16 c20 -8 45 -22 54
-30 9 -8 21 -12 26 -9 13 8 104 -64 133 -106 20 -29 17 -28 -27 13 -51 47 -94
76 -94 62 0 -4 21 -30 48 -57 l47 -50 -45 39 c-25 21 -51 47 -58 57 -25 34
-127 78 -179 77 l-48 -1 59 -14 c72 -17 108 -39 166 -100 l45 -47 -59 47 c-70
56 -110 74 -182 82 -31 4 -51 11 -48 16 4 6 -1 8 -12 5 -11 -4 -41 -11 -69
-18 -76 -18 -118 -43 -169 -100 -54 -60 -60 -56 -12 10 34 46 81 89 101 91 6
1 15 6 21 11 6 5 45 18 85 29 81 22 154 19 217 -7z m1522 7 c-6 -11 -13 -20
-16 -20 -2 0 0 9 6 20 6 11 13 20 16 20 2 0 0 -9 -6 -20z m696 7 c-11 -7 -43
-31 -72 -54 -29 -24 -51 -37 -48 -30 2 6 19 22 37 35 18 12 25 22 17 22 -8 1
1 9 20 20 39 21 79 27 46 7z m-3656 -39 c10 -6 7 -7 -10 -2 -14 3 -32 11 -40
16 -10 6 -7 7 10 2 14 -3 32 -11 40 -16z m124 6 c68 -23 51 -27 -19 -4 -33 10
-53 19 -44 19 8 1 37 -6 63 -15z m3436 13 c0 -2 -15 -16 -32 -33 l-33 -29 29
33 c28 30 36 37 36 29z m134 -5 c3 -5 -12 -19 -34 -31 -22 -12 -53 -36 -70
-52 -16 -17 -30 -26 -30 -21 0 6 14 22 30 35 17 14 30 30 30 36 0 6 12 17 28
25 32 18 39 19 46 8z m-3093 -19 c13 -16 12 -17 -3 -4 -10 7 -18 15 -18 17 0
8 8 3 21 -13z m-5354 -15 c-3 -8 -6 -5 -6 6 -1 11 2 17 5 13 3 -3 4 -12 1 -19z
m5168 -14 l40 -36 -45 33 c-25 18 -47 34 -49 36 -2 2 0 3 5 3 5 0 27 -16 49
-36z m105 11 c13 -14 21 -25 18 -25 -2 0 -15 11 -28 25 -13 14 -21 25 -18 25
2 0 15 -11 28 -25z m-5693 9 c-3 -3 -12 -4 -19 -1 -8 3 -5 6 6 6 11 1 17 -2
13 -5z m350 -10 c-3 -3 -12 -4 -19 -1 -8 3 -5 6 6 6 11 1 17 -2 13 -5z m223
-4 c0 -5 -2 -10 -4 -10 -3 0 -8 5 -11 10 -3 6 -1 10 4 10 6 0 11 -4 11 -10z
m4936 -6 c18 -14 18 -14 -6 -3 -31 14 -36 19 -24 19 6 0 19 -7 30 -16z m934
11 c0 -3 -21 -10 -46 -16 -25 -7 -59 -23 -74 -36 l-28 -23 11 25 c7 15 28 30
52 39 41 14 85 20 85 11z m2450 0 c0 -2 -18 -14 -40 -25 -22 -11 -40 -18 -40
-15 0 2 17 13 38 24 42 23 42 23 42 16z m-3149 -22 c13 -16 12 -17 -3 -4 -10
7 -18 15 -18 17 0 8 8 3 21 -13z m847 -14 c41 -18 60 -35 25 -22 -10 3 2 -16
27 -42 l45 -49 -50 43 c-55 48 -90 65 -147 74 -36 5 -53 -5 -25 -16 6 -3 -6
-6 -28 -6 -24 -1 -61 -13 -92 -30 -29 -16 -53 -26 -53 -23 0 14 71 55 132 77
68 25 95 24 166 -6z m2013 -12 c-10 -9 -11 -8 -5 6 3 10 9 15 12 12 3 -3 0
-11 -7 -18z m-2346 -39 c-28 -29 -51 -55 -52 -57 -2 -2 -3 1 -3 8 0 15 79 101
93 101 6 0 -11 -24 -38 -52z m2538 17 c-3 -9 -8 -14 -10 -11 -3 3 -2 9 2 15 9
16 15 13 8 -4z m-5345 -17 c15 0 -9 -4 -53 -8 -44 -4 -82 -6 -83 -4 -7 5 83
22 96 18 8 -2 26 -5 40 -6z m3008 5 c-3 -4 -16 -8 -28 -10 -12 -2 -34 -10 -50
-17 -38 -20 -35 -10 5 14 29 18 89 29 73 13z m103 -7 c15 -8 34 -23 42 -32 13
-16 12 -16 -14 0 -15 10 -44 24 -65 32 -28 10 -31 13 -14 14 13 0 35 -6 51
-14z m-66 -23 c-7 -2 -19 -2 -25 0 -7 3 -2 5 12 5 14 0 19 -2 13 -5z m-3323
-67 c0 -2 -7 -7 -16 -10 -8 -3 -12 -2 -9 4 6 10 25 14 25 6z m17 -21 c0 -8 -4
-12 -9 -9 -5 3 -6 10 -3 15 9 13 12 11 12 -6z m68 -15 c-3 -5 -11 -10 -16 -10
-6 0 -7 5 -4 10 3 6 11 10 16 10 6 0 7 -4 4 -10z m4145 -40 c5 8 10 10 10 4 0
-6 -7 -17 -15 -24 -8 -7 -15 -10 -15 -7 0 3 -3 14 -6 24 -5 15 -4 16 5 3 10
-13 12 -13 21 0z m-4180 -21 c0 -5 -4 -9 -10 -9 -5 0 -10 6 -10 13 0 8 -4 7
-10 -3 -5 -8 -10 -10 -10 -4 0 6 3 13 6 17 8 8 34 -3 34 -14z m415 2 c-3 -6
-11 -11 -16 -11 -5 0 -4 6 3 14 14 16 24 13 13 -3z m354 -1438 c12 -23 -4 -53
-29 -53 -27 0 -37 40 -14 57 24 17 31 16 43 -4z m-934 -23 c0 -20 -5 -25 -25
-25 -20 0 -26 6 -28 28 -3 26 -1 28 25 25 22 -2 28 -8 28 -28z m2760 0 c0 -18
-6 -26 -23 -28 -13 -2 -25 3 -28 12 -10 26 4 48 28 44 17 -2 23 -10 23 -28z
m-677 -7 c-75 -2 -201 -2 -280 0 -79 1 -17 3 137 3 154 0 218 -2 143 -3z"/>
<path d="M8730 9445 c0 -26 14 -31 39 -16 19 12 6 41 -19 41 -15 0 -20 -7 -20
-25z"/>
<path d="M6680 6140 c0 -5 5 -10 11 -10 5 0 7 5 4 10 -3 6 -8 10 -11 10 -2 0
-4 -4 -4 -10z"/>
<path d="M2862 6110 c0 -14 2 -19 5 -12 2 6 2 18 0 25 -3 6 -5 1 -5 -13z"/>
<path d="M5380 6119 c0 -6 -7 -8 -17 -5 -15 6 -15 4 2 -14 10 -11 19 -20 19
-20 1 0 2 11 2 25 1 14 0 25 -2 25 -2 0 -4 -5 -4 -11z"/>
<path d="M6073 6111 c0 -11 5 -18 9 -15 4 3 5 11 1 19 -7 21 -12 19 -10 -4z"/>
<path d="M6550 6121 c0 -5 5 -13 10 -16 6 -3 10 -2 10 4 0 5 -4 13 -10 16 -5
3 -10 2 -10 -4z"/>
<path d="M7381 6114 c0 -11 3 -14 6 -6 3 7 2 16 -1 19 -3 4 -6 -2 -5 -13z"/>
<path d="M4135 6110 c-3 -5 -1 -10 4 -10 6 0 11 5 11 10 0 6 -2 10 -4 10 -3 0
-8 -4 -11 -10z"/>
<path d="M4555 6110 c3 -5 8 -10 11 -10 2 0 4 5 4 10 0 6 -5 10 -11 10 -5 0
-7 -4 -4 -10z"/>
<path d="M6227 6109 c7 -7 15 -10 18 -7 3 3 -2 9 -12 12 -14 6 -15 5 -6 -5z"/>
<path d="M3095 6100 c-3 -5 -1 -10 4 -10 6 0 11 5 11 10 0 6 -2 10 -4 10 -3 0
-8 -4 -11 -10z"/>
<path d="M3435 6101 c-3 -5 -1 -12 5 -16 5 -3 10 1 10 9 0 18 -6 21 -15 7z"/>
<path d="M4071 6101 c-8 -5 -9 -11 -3 -15 5 -3 12 1 16 9 6 17 6 18 -13 6z"/>
<path d="M4520 6106 c0 -2 7 -9 15 -16 13 -11 14 -10 9 4 -5 14 -24 23 -24 12z"/>
<path d="M6316 6098 c3 -5 10 -6 15 -3 13 9 11 12 -6 12 -8 0 -12 -4 -9 -9z"/>
<path d="M6950 6101 c0 -6 4 -13 10 -16 6 -3 7 1 4 9 -7 18 -14 21 -14 7z"/>
<path d="M2868 6082 c-16 -17 -16 -18 1 -18 9 0 18 8 18 18 2 21 2 21 -19 0z"/>
<path d="M4396 6092 c-3 -5 1 -9 9 -9 8 0 12 4 9 9 -3 4 -7 8 -9 8 -2 0 -6 -4
-9 -8z"/>
<path d="M5780 6089 c0 -5 5 -7 10 -4 6 3 10 8 10 11 0 2 -4 4 -10 4 -5 0 -10
-5 -10 -11z"/>
<path d="M5880 6089 c0 -5 5 -7 10 -4 6 3 10 8 10 11 0 2 -4 4 -10 4 -5 0 -10
-5 -10 -11z"/>
<path d="M5521 6074 c0 -11 3 -14 6 -6 3 7 2 16 -1 19 -3 4 -6 -2 -5 -13z"/>
<path d="M6815 6079 c-4 -6 -4 -13 -1 -16 3 -4 6 -1 6 6 0 7 5 9 10 6 6 -3 10
-1 10 4 0 14 -17 14 -25 0z"/>
<path d="M2956 6071 c-3 -5 1 -11 9 -14 9 -4 12 -1 8 9 -6 16 -10 17 -17 5z"/>
<path d="M2885 6030 c-3 -4 -13 -6 -24 -3 -12 3 -20 -2 -24 -16 -3 -12 -2 -19
3 -16 4 3 11 -2 14 -11 4 -11 2 -15 -8 -11 -16 6 -29 -40 -14 -49 6 -4 6 -9 1
-13 -8 -6 -33 -90 -33 -111 0 -7 804 -10 2323 -10 l2323 0 -7 58 c-4 31 -8 68
-9 82 -1 23 -2 23 -10 5 -5 -11 -9 -16 -9 -11 -1 5 -7 3 -14 -3 -8 -6 -17 -8
-20 -5 -4 4 5 15 18 26 24 19 35 68 15 68 -5 0 -7 -7 -4 -15 4 -10 0 -15 -15
-15 -23 0 -28 15 -8 24 6 3 1 3 -12 0 -14 -4 -27 -1 -32 7 -8 11 -14 9 -30
-11 -18 -22 -21 -22 -17 -5 3 17 -3 20 -39 21 l-43 1 6 -39 c5 -25 3 -38 -5
-38 -7 0 -9 10 -5 28 4 22 3 24 -6 12 -9 -12 -10 -6 -6 25 6 37 5 38 -7 17
l-13 -23 -12 23 -12 23 5 -25 c5 -25 5 -25 -6 -2 -9 16 -21 22 -43 21 -19 0
-25 -3 -16 -7 17 -8 25 -32 11 -32 -5 0 -12 6 -15 13 -3 6 -5 3 -3 -8 3 -26
19 -24 34 6 7 13 13 19 13 12 0 -7 12 -24 27 -38 15 -14 22 -25 15 -25 -8 0
-20 7 -29 15 -18 19 -33 11 -34 -18 0 -22 0 -22 -10 1 -5 13 -13 20 -19 17 -6
-4 -10 5 -10 19 0 21 -5 26 -25 26 -18 0 -25 -5 -25 -19 0 -11 -5 -23 -10 -26
-7 -4 -9 2 -4 19 5 20 2 26 -10 26 -9 0 -16 -6 -16 -12 0 -9 -3 -8 -10 2 -6 9
-5 17 3 23 7 5 1 5 -13 1 -14 -4 -28 -11 -31 -17 -4 -5 -11 -1 -18 9 -6 11
-11 13 -11 6 0 -7 7 -24 16 -37 15 -23 15 -25 0 -25 -10 0 -14 5 -11 10 3 6 0
17 -9 25 -11 11 -16 12 -20 2 -4 -6 -4 -2 -2 10 3 16 0 20 -11 16 -8 -3 -12
-11 -10 -18 3 -6 -1 -12 -9 -12 -9 0 -13 7 -9 21 5 19 4 19 -6 -1 -15 -28 -33
-30 -24 -3 5 16 2 20 -19 20 -21 0 -26 -5 -25 -22 1 -17 2 -19 6 -5 2 9 11 17
19 17 18 0 18 -5 -2 -24 -22 -23 -34 -20 -34 9 0 20 -5 25 -26 25 -15 0 -23
-4 -19 -11 4 -6 13 -8 21 -5 16 6 18 -12 5 -33 -6 -9 -11 -10 -15 -2 -4 6 -5
11 -2 11 3 0 -4 10 -15 21 -16 16 -23 18 -29 9 -6 -9 -9 -9 -13 1 -4 10 -6 10
-6 2 -1 -9 -8 -10 -26 -3 -29 11 -30 11 -10 -38 12 -29 12 -33 1 -19 -12 16
-14 16 -20 1 -9 -22 -8 -26 6 -18 7 5 8 3 3 -5 -5 -9 -10 -10 -18 -2 -7 7 -7
18 2 37 8 19 9 30 1 38 -7 7 -10 5 -10 -5 0 -8 -6 -24 -14 -35 -16 -20 -16 -5
-1 29 4 10 5 21 1 24 -3 4 -6 -1 -6 -10 0 -20 -16 -23 -23 -4 -3 9 -9 9 -28
-2 -15 -9 -24 -10 -27 -3 -2 6 -10 8 -18 5 -8 -3 -14 0 -14 6 0 6 -8 11 -17
11 -15 0 -14 -2 3 -14 14 -11 16 -17 7 -27 -6 -6 -9 -18 -6 -27 4 -10 2 -13
-5 -8 -7 4 -10 17 -6 32 4 14 2 24 -4 24 -6 0 -13 -8 -15 -17 -4 -17 -5 -17
-6 0 0 10 -5 15 -11 12 -5 -3 -10 1 -10 9 0 9 -4 16 -10 16 -13 0 -13 -6 0
-31 7 -13 7 -19 0 -19 -5 0 -10 7 -10 15 0 8 -4 15 -10 15 -5 0 -10 -6 -10
-12 0 -9 -3 -8 -10 2 -7 11 -5 17 8 22 10 4 -2 6 -28 6 -25 0 -37 -2 -27 -5
21 -6 22 -19 1 -31 -9 -5 -14 -15 -10 -21 4 -6 11 -9 16 -6 4 3 6 -5 2 -17 -5
-21 -5 -21 -14 3 -9 24 -10 24 -25 4 -15 -20 -15 -20 -9 2 8 25 -9 40 -21 19
-6 -11 -13 -12 -23 -6 -13 8 -13 10 2 10 9 0 20 10 24 22 l7 23 8 -23 c8 -22
29 -22 29 -1 0 6 -5 7 -12 3 -8 -5 -9 -2 -5 9 10 28 -38 22 -50 -5 l-10 -23
-7 23 c-9 27 -31 29 -33 2 -1 -11 2 -18 8 -15 5 4 9 -3 9 -13 0 -11 -7 -22
-15 -26 -8 -3 -15 -1 -15 4 0 6 5 10 11 10 5 0 7 5 3 12 -5 8 -11 6 -19 -5
-15 -21 -29 -22 -21 -2 8 21 -20 19 -34 -2 -6 -10 -9 -11 -6 -3 3 8 9 23 12
32 3 9 16 19 28 21 11 2 1 4 -24 4 -25 1 -37 -1 -27 -4 25 -7 21 -24 -5 -19
-13 2 -22 9 -20 15 1 6 -8 11 -20 10 -13 0 -17 -3 -10 -6 6 -2 12 -14 12 -25
0 -15 5 -18 20 -13 14 5 18 2 15 -7 -3 -8 -21 -14 -41 -15 -30 -1 -33 1 -18
11 18 13 12 36 -9 36 -8 0 -8 -3 1 -9 11 -7 11 -9 -2 -14 -9 -4 -16 -2 -16 4
0 6 -7 9 -16 7 -8 -2 -14 -7 -14 -12 1 -5 -4 -12 -11 -17 -9 -5 -5 -11 14 -20
14 -6 24 -16 21 -21 -3 -4 -12 -1 -20 7 -9 8 -20 13 -25 10 -5 -4 -9 -2 -9 4
0 6 -7 7 -17 4 -11 -4 -14 -3 -9 5 4 7 13 12 21 12 22 0 28 33 9 47 -23 17
-34 16 -34 -2 0 -8 7 -15 15 -15 8 0 15 -4 15 -10 0 -15 -16 -12 -30 5 -16 19
-30 19 -30 1 0 -7 -7 -19 -15 -26 -17 -14 -21 0 -4 17 7 7 3 11 -15 11 -14 0
-24 -5 -23 -10 1 -6 -4 -13 -11 -15 -8 -3 -10 1 -6 11 3 9 1 16 -5 16 -6 0 -8
6 -5 13 3 8 -3 13 -16 13 -22 0 -27 -12 -7 -19 6 -3 2 -6 -10 -6 -15 -1 -23 5
-23 16 0 15 -14 10 -15 -5 -2 -24 -17 -62 -25 -62 -6 0 -10 -8 -11 -17 0 -11
-2 -13 -6 -5 -3 7 2 23 11 36 24 37 17 61 -18 63 -24 2 -34 -3 -42 -21 -7 -15
-8 -30 -2 -40 7 -12 5 -14 -6 -10 -8 3 -13 14 -11 26 3 11 -2 26 -10 34 -18
19 -25 18 -25 -3 -1 -17 -2 -17 -15 0 -13 18 -15 17 -45 -12 -19 -18 -29 -35
-24 -42 4 -8 3 -9 -4 -5 -7 4 -12 14 -12 22 0 8 -4 14 -10 14 -5 0 -10 -4 -10
-10 0 -5 -5 -10 -12 -10 -9 0 -9 3 0 12 14 14 16 32 3 23 -5 -3 -17 2 -25 11
-15 14 -16 14 -16 0 0 -9 -7 -16 -15 -16 -8 0 -12 -6 -9 -13 3 -8 -2 -20 -11
-27 -9 -7 -15 -8 -15 -2 0 6 5 12 11 14 13 4 -9 58 -23 58 -5 0 -6 -5 -3 -11
11 -16 -4 -59 -20 -59 -8 0 -15 -4 -15 -10 0 -5 5 -10 10 -10 6 0 10 -6 10
-12 0 -7 -11 -1 -24 12 -23 23 -23 26 -7 40 19 18 16 50 -5 50 -8 0 -13 -3
-11 -8 3 -4 -3 -24 -13 -44 -13 -27 -15 -40 -6 -48 7 -8 3 -8 -11 1 -16 10
-19 17 -12 30 5 10 14 21 19 24 13 8 13 45 0 45 -5 0 -10 -8 -10 -19 0 -10 -8
-25 -17 -32 -15 -11 -16 -11 -5 1 26 30 15 48 -30 47 -24 0 -35 -2 -25 -4 9
-3 17 -8 18 -11 0 -4 3 -19 5 -34 3 -17 0 -28 -6 -28 -6 0 -10 12 -8 27 2 16
-2 28 -11 31 -10 3 -12 0 -8 -12 4 -9 2 -15 -5 -13 -6 1 -13 -4 -16 -12 -3 -8
0 -11 7 -7 6 4 11 3 11 -2 0 -6 -6 -12 -14 -15 -9 -4 -15 4 -18 23 -3 20 -1
27 9 23 8 -3 13 3 13 17 0 18 -3 20 -14 11 -11 -9 -15 -9 -19 1 -3 7 -6 -4 -6
-25 -1 -21 -5 -36 -10 -33 -5 3 -7 16 -4 29 4 19 1 18 -21 -10 -18 -22 -32
-30 -46 -26 -11 3 -20 9 -20 14 0 13 14 11 28 -3 9 -9 12 -8 12 6 0 9 -4 14
-10 11 -5 -3 -10 -1 -10 4 0 15 13 14 29 -1 11 -11 13 -10 9 2 -7 21 -35 24
-54 6 -16 -16 -34 -13 -34 5 0 6 4 7 10 4 6 -3 7 1 4 10 -6 14 -8 14 -20 -2
-7 -10 -14 -26 -14 -35 0 -25 -36 -23 -36 1 0 15 3 17 13 9 17 -14 16 2 -1 25
-13 16 -14 16 -20 -5 -5 -19 -8 -20 -15 -8 -5 8 -7 18 -5 22 3 4 1 8 -5 8 -5
0 -12 -6 -14 -12 -4 -10 -6 -10 -6 0 -1 6 -8 12 -17 12 -12 0 -15 -6 -11 -21
4 -16 3 -18 -9 -8 -7 6 -11 15 -8 20 3 5 -4 9 -15 9 -15 0 -21 -7 -21 -22 0
-19 -2 -20 -11 -8 -9 12 -10 10 -6 -8 4 -17 2 -22 -8 -18 -8 3 -15 0 -17 -6
-5 -15 -61 -17 -70 -4 -6 8 -11 7 -16 -2 -6 -8 -18 -11 -35 -7 -28 7 -42 30
-25 41 7 4 8 3 4 -4 -4 -7 -1 -12 8 -12 8 0 16 6 19 13 3 9 7 9 20 -2 14 -11
18 -11 23 2 11 28 -6 37 -71 37 -56 0 -64 -2 -58 -16 4 -12 2 -15 -8 -12 -8 3
-13 10 -12 15 1 5 -16 10 -38 11 -21 1 -39 -2 -39 -6 0 -13 -57 -71 -64 -65
-3 3 -1 12 5 20 9 10 8 17 -1 28 -7 9 -8 15 -2 15 5 0 13 -7 16 -16 4 -9 9
-15 11 -12 3 3 3 13 -1 22 -7 19 -40 22 -48 4 -5 -10 -7 -10 -12 0 -8 17 -34
15 -34 -4 0 -8 -5 -12 -10 -9 -6 4 -8 11 -5 16 4 5 2 9 -2 9 -5 0 -15 -16 -21
-35 -10 -25 -17 -32 -29 -28 -14 6 -14 8 -2 11 17 6 29 22 29 42 -1 12 -3 11
-11 -2 -12 -22 -33 -24 -25 -3 4 11 -1 15 -17 15 -18 0 -19 -2 -7 -10 12 -8
11 -10 -7 -10 -13 0 -23 5 -23 10 0 6 -6 10 -13 10 -17 0 -16 -41 1 -60 13
-12 14 -11 8 8 -5 13 -3 22 3 22 12 0 14 -20 5 -44 -5 -12 -10 -11 -31 10 -21
21 -23 28 -12 35 9 6 3 8 -18 6 -33 -2 -43 -12 -20 -20 6 -2 9 -8 5 -12 -4 -4
-15 6 -25 24 -10 17 -22 31 -26 31 -5 0 -5 -4 -2 -10 3 -5 -1 -10 -9 -10 -9 0
-15 -3 -14 -7 0 -5 -2 -16 -6 -25 -11 -24 -36 -23 -29 1 3 11 -2 21 -13 25
-17 7 -34 -8 -34 -29 0 -6 -9 -11 -20 -12 -24 -2 -27 12 -4 21 9 3 14 13 11
20 -4 9 1 17 11 19 13 4 12 5 -5 6 -15 1 -24 -7 -32 -29 -11 -33 -32 -42 -24
-10 3 11 0 20 -6 20 -10 0 -15 -20 -12 -47 1 -7 -3 -13 -9 -13 -5 0 -10 7 -10
15 0 8 -3 15 -6 15 -3 0 -12 -7 -20 -15 -18 -17 -34 -20 -34 -5 0 6 7 10 15
10 9 0 18 7 21 15 5 12 10 13 20 4 11 -9 14 -8 14 5 0 9 -7 16 -16 16 -8 0
-12 5 -9 10 3 6 -4 10 -17 10 -13 0 -18 -4 -13 -8 16 -11 16 -30 0 -36 -10 -3
-12 0 -8 12 6 15 5 15 -10 3 -9 -7 -17 -20 -17 -27 0 -8 -4 -14 -10 -14 -6 0
-5 10 2 26 10 21 9 27 -3 34 -10 7 -16 4 -21 -8 -6 -15 -7 -14 -8 3 -1 20 -1
20 -15 1 -13 -17 -15 -18 -15 -3 0 24 -17 21 -23 -3 -3 -14 -10 -18 -21 -14
-9 4 -16 3 -15 -2 4 -24 -2 -36 -16 -30 -17 6 -21 -19 -5 -29 6 -3 10 -11 10
-16 0 -14 -24 11 -33 34 -6 15 3 22 26 18 4 0 7 5 7 13 0 8 7 22 16 30 14 15
13 16 -9 16 -18 0 -27 -7 -31 -25 -8 -31 -36 -33 -36 -2 -1 21 -1 21 -14 4
-11 -14 -15 -15 -19 -5 -4 10 -8 10 -17 -2 -10 -12 -11 -11 -7 8 4 15 0 22
-10 22 -11 0 -13 -10 -9 -47 3 -27 3 -42 0 -34 -5 11 -9 9 -18 -7 -8 -15 -15
-19 -26 -12 -13 9 -13 10 0 10 17 0 45 39 35 48 -4 4 -12 -1 -20 -11 -11 -16
-13 -16 -19 -2 -3 9 -2 14 3 11 5 -3 15 2 22 11 12 15 12 16 -3 10 -12 -4 -15
-2 -11 9 4 10 -3 14 -26 14 -23 0 -29 -4 -25 -15 4 -8 1 -15 -5 -15 -6 0 -11
7 -11 15 0 8 -7 15 -16 15 -8 0 -12 -4 -9 -10 3 -5 2 -10 -3 -10 -5 0 -15 -11
-22 -25 -10 -18 -16 -22 -21 -13 -5 7 -4 17 1 22 13 13 13 36 0 36 -5 0 -7 -7
-4 -15 4 -8 2 -15 -4 -15 -6 0 -12 5 -14 12 -3 7 -13 2 -26 -12 -14 -15 -22
-19 -22 -10 0 11 -3 11 -12 2 -19 -19 -29 -14 -16 8 7 11 19 21 28 24 12 3 11
4 -2 5 -21 1 -61 -36 -53 -48 8 -15 -19 -31 -35 -21 -10 7 -11 10 -2 10 6 0
12 7 12 15 0 8 4 15 10 15 5 0 7 7 4 15 -4 8 -13 15 -21 15 -10 0 -13 -6 -9
-16 5 -13 4 -14 -7 -6 -8 7 -17 9 -20 5 -4 -3 -7 -1 -7 5 0 7 -4 12 -10 12 -5
0 -10 -7 -10 -15 0 -8 -4 -15 -10 -15 -5 0 -10 7 -10 15 0 13 -2 14 -14 3 -8
-7 -12 -16 -9 -20 2 -5 0 -8 -6 -8 -5 0 -13 9 -16 20 -7 22 -25 27 -25 8 0 -9
-4 -8 -10 2 -8 13 -10 12 -10 -2 0 -11 -8 -18 -20 -18 -11 0 -20 4 -20 9 0 12
-39 21 -45 11z m1568 -17 c-5 -12 -2 -15 10 -10 20 8 47 -1 47 -15 0 -6 -11
-7 -26 -4 -22 6 -25 4 -20 -9 3 -9 2 -13 -4 -10 -6 3 -10 13 -10 21 0 8 -4 12
-10 9 -12 -7 -12 -3 -4 19 3 9 10 16 15 16 4 0 5 -8 2 -17z m120 6 c-18 -5
-33 -15 -33 -21 0 -6 -2 -9 -5 -6 -15 15 10 38 39 37 l31 -1 -32 -9z m627 1
c0 -5 -2 -10 -4 -10 -3 0 -8 5 -11 10 -3 6 -1 10 4 10 6 0 11 -4 11 -10z m445
1 c-3 -5 1 -11 10 -13 11 -2 8 -9 -12 -28 -23 -21 -26 -22 -19 -5 5 11 8 28 8
38 0 9 4 17 9 17 6 0 8 -4 4 -9z m-2765 -17 c0 -2 -7 -4 -15 -4 -8 0 -15 4
-15 10 0 5 7 7 15 4 8 -4 15 -8 15 -10z m30 -2 c0 -9 -9 -23 -21 -30 -21 -13
-21 -13 -3 17 21 36 24 37 24 13z m184 -3 c-4 -8 1 -9 16 -4 16 5 20 4 15 -5
-4 -6 -16 -10 -26 -7 -11 3 -23 -2 -29 -11 -5 -10 -10 -13 -10 -8 0 5 7 18 17
28 18 20 28 24 17 7z m186 7 c0 -3 -4 -8 -10 -11 -5 -3 -10 -1 -10 4 0 6 5 11
10 11 6 0 10 -2 10 -4z m87 -4 c8 -5 8 -13 -3 -32 l-14 -25 6 29 c5 21 4 27
-5 22 -6 -4 -11 -2 -11 3 0 13 10 14 27 3z m40 -12 c-1 -11 -7 -20 -14 -20
-11 0 -11 5 -3 20 6 11 13 20 15 20 2 0 3 -9 2 -20z m905 3 c-6 -3 -9 -9 -6
-15 4 -6 -1 -8 -15 -3 -22 7 -30 -10 -8 -18 6 -2 9 -7 6 -11 -9 -10 -39 4 -39
18 0 13 61 45 70 38 3 -3 -1 -7 -8 -9z m26 -8 c-6 -14 -13 -23 -15 -21 -5 5
15 46 22 46 3 0 -1 -11 -7 -25z m1199 -6 c2 -11 -1 -18 -6 -15 -5 4 -11 0 -14
-6 -4 -10 -2 23 2 51 2 11 15 -12 18 -30z m945 13 c-7 -2 -12 -8 -12 -13 0 -6
5 -7 10 -4 6 3 10 2 10 -3 0 -6 -8 -13 -17 -16 -10 -4 -14 -4 -10 0 4 4 2 13
-4 21 -9 10 -8 13 0 13 7 0 9 4 6 10 -4 6 1 7 11 3 11 -4 13 -8 6 -11z m166 1
c-6 -7 -12 -13 -13 -13 -2 0 -5 6 -8 13 -3 7 3 13 14 13 13 0 15 -3 7 -13z
m55 -9 c11 -14 16 -28 13 -31 -3 -4 -6 -1 -6 6 0 7 -9 9 -24 5 -13 -3 -27 -1
-30 5 -5 7 2 11 15 11 18 0 19 2 9 15 -7 8 -9 15 -4 15 5 0 17 -12 27 -26z
m343 0 c-4 -9 -9 -15 -11 -12 -3 3 -3 13 1 22 4 9 9 15 11 12 3 -3 3 -13 -1
-22z m281 4 c-3 -8 -6 -5 -6 6 -1 11 2 17 5 13 3 -3 4 -12 1 -19z m-3649 0
c-3 -7 -13 -15 -23 -16 -15 -4 -16 -2 -4 12 17 19 32 21 27 4z m31 -9 c-10 -6
-7 -10 10 -17 20 -7 21 -10 8 -15 -17 -6 -56 -2 -65 8 -3 3 2 5 11 5 10 0 17
8 17 20 0 14 5 18 16 13 12 -5 13 -7 3 -14z m490 -22 c-1 -31 -1 -31 -9 -7
-11 36 -11 52 0 45 6 -3 10 -21 9 -38z m605 27 c4 -9 4 -19 1 -22 -3 -3 -5 0
-5 7 0 7 -5 9 -10 6 -6 -4 -8 -11 -5 -16 4 -5 1 -9 -4 -9 -6 0 -11 8 -11 18 0
33 23 44 34 16z m763 -6 c-3 -8 -6 -5 -6 6 -1 11 2 17 5 13 3 -3 4 -12 1 -19z
m163 9 c0 -8 -7 -14 -15 -14 -25 0 -17 17 13 26 1 1 2 -5 2 -12z m30 -2 c0 -8
-4 -15 -10 -15 -5 0 -7 7 -4 15 4 8 8 15 10 15 2 0 4 -7 4 -15z m1045 5 c3 -5
1 -10 -4 -10 -6 0 -11 5 -11 10 0 6 2 10 4 10 3 0 8 -4 11 -10z m165 -19 c0
-14 2 -14 10 -1 11 17 13 10 4 -13 -5 -13 -8 -13 -25 4 -23 23 -25 41 -4 33 8
-4 15 -14 15 -23z m280 13 c0 -8 -4 -12 -10 -9 -5 3 -10 10 -10 16 0 5 5 9 10
9 6 0 10 -7 10 -16z m-4240 1 c0 -3 -9 -14 -20 -25 -11 -11 -22 -20 -25 -20
-10 0 -4 19 11 34 15 15 34 21 34 11z m280 -11 c0 -8 -5 -12 -10 -9 -6 4 -8
11 -5 16 9 14 15 11 15 -7z m220 3 c0 8 7 10 17 6 14 -5 14 -8 2 -11 -7 -3
-18 -11 -24 -19 -8 -10 -10 -7 -12 13 -1 19 1 23 8 13 6 -9 9 -10 9 -2z m545
-7 c-4 -11 -2 -20 4 -20 6 0 11 6 11 13 0 6 5 4 11 -6 8 -14 8 -22 -1 -30 -8
-9 -10 -8 -4 6 5 13 2 16 -11 10 -12 -4 -23 0 -33 13 -12 16 -14 16 -9 2 4
-10 2 -18 -3 -18 -18 0 -11 38 8 43 31 8 33 7 27 -13z m2469 5 c-6 -16 -24
-21 -24 -7 0 11 11 22 21 22 5 0 6 -7 3 -15z m321 5 c3 -5 -1 -10 -10 -10 -9
0 -13 5 -10 10 3 6 8 10 10 10 2 0 7 -4 10 -10z m519 -6 c3 -8 10 -12 16 -9 5
3 10 1 10 -4 0 -13 -17 -14 -24 -2 -9 13 -56 0 -56 -16 0 -8 -4 -12 -10 -8
-15 9 0 35 21 35 10 0 19 5 19 10 0 16 17 12 24 -6z m-4154 -29 c0 -5 -5 -3
-10 5 -5 8 -10 20 -10 25 0 6 5 3 10 -5 5 -8 10 -19 10 -25z m1750 25 c0 -5
-2 -10 -4 -10 -3 0 -8 5 -11 10 -3 6 -1 10 4 10 6 0 11 -4 11 -10z m905 0 c-3
-5 -12 -10 -18 -10 -7 0 -6 4 3 10 19 12 23 12 15 0z m465 -23 c0 -18 -2 -19
-10 -7 -13 20 -13 43 0 35 6 -3 10 -16 10 -28z m-3210 19 c0 -2 -7 -7 -16 -10
-8 -3 -12 -2 -9 4 6 10 25 14 25 6z m992 -18 c-7 -7 -12 -8 -12 -2 0 14 12 26
19 19 2 -3 -1 -11 -7 -17z m292 7 c-4 -8 -8 -15 -10 -15 -2 0 -4 7 -4 15 0 8
4 15 10 15 5 0 7 -7 4 -15z m36 5 c0 -5 -4 -10 -10 -10 -5 0 -10 5 -10 10 0 6
5 10 10 10 6 0 10 -4 10 -10z m1668 -15 c-3 -3 -9 2 -12 12 -6 14 -5 15 5 6 7
-7 10 -15 7 -18z m689 19 c-3 -3 -12 -4 -19 -1 -8 3 -5 6 6 6 11 1 17 -2 13
-5z m-3767 -8 c0 -2 -7 -7 -16 -10 -8 -3 -12 -2 -9 4 6 10 25 14 25 6z m530
-5 c0 -5 -9 -11 -20 -14 -11 -3 -20 -1 -20 3 0 5 8 11 18 13 9 3 18 5 20 6 1
0 2 -3 2 -8z m77 -13 c-3 -8 -6 -5 -6 6 -1 11 2 17 5 13 3 -3 4 -12 1 -19z
m343 3 c-11 -22 -30 -37 -30 -24 0 5 5 14 12 21 9 9 7 12 -9 12 -12 0 -24 -6
-26 -12 -3 -8 -6 -6 -6 5 -1 13 7 17 34 17 32 0 35 -2 25 -19z m544 4 c-4 -8
-10 -15 -15 -15 -4 0 -6 7 -3 15 4 8 10 15 15 15 4 0 6 -7 3 -15z m63 -7 c-3
-8 -6 -5 -6 6 -1 11 2 17 5 13 3 -3 4 -12 1 -19z m293 12 c0 -5 -4 -10 -10
-10 -5 0 -10 5 -10 10 0 6 5 10 10 10 6 0 10 -4 10 -10z m698 -15 c-3 -3 -9 2
-12 12 -6 14 -5 15 5 6 7 -7 10 -15 7 -18z m1252 15 c0 -5 -2 -10 -4 -10 -3 0
-8 5 -11 10 -3 6 -1 10 4 10 6 0 11 -4 11 -10z m40 6 c0 -3 -4 -8 -10 -11 -5
-3 -10 -1 -10 4 0 6 5 11 10 11 6 0 10 -2 10 -4z m30 0 c0 -3 -4 -8 -10 -11
-5 -3 -10 -1 -10 4 0 6 5 11 10 11 6 0 10 -2 10 -4z m-3652 -31 c-3 -3 -9 2
-12 12 -6 14 -5 15 5 6 7 -7 10 -15 7 -18z m72 -19 c0 -12 -5 -7 -19 24 -11
24 -11 24 3 6 9 -11 16 -24 16 -30z m63 31 c3 -8 2 -20 -3 -26 -5 -9 -7 -4 -7
13 0 29 2 32 10 13z m501 4 c3 -5 -1 -11 -9 -14 -9 -4 -12 -1 -8 9 6 16 10 17
17 5z m361 -1 c3 -6 -1 -7 -9 -4 -18 7 -21 14 -7 14 6 0 13 -4 16 -10z m495 6
c0 -3 -4 -8 -10 -11 -5 -3 -10 -1 -10 4 0 6 5 11 10 11 6 0 10 -2 10 -4z m310
-23 c0 -19 -13 -9 -16 12 -1 8 2 13 7 9 5 -3 9 -12 9 -21z m1120 17 c0 -5 -2
-10 -4 -10 -3 0 -8 5 -11 10 -3 6 -1 10 4 10 6 0 11 -4 11 -10z m270 0 c0 -5
-2 -10 -4 -10 -3 0 -8 5 -11 10 -3 6 -1 10 4 10 6 0 11 -4 11 -10z m120 6 c0
-3 -4 -8 -10 -11 -5 -3 -10 -1 -10 4 0 6 5 11 10 11 6 0 10 -2 10 -4z m720 -8
c0 -11 -38 -10 -44 1 -3 5 5 8 19 7 14 0 25 -4 25 -8z m63 -5 c-5 -12 -3 -14
7 -8 8 5 11 3 8 -5 -8 -24 -24 -21 -26 5 -1 14 3 25 8 25 5 0 6 -7 3 -17z
m-4285 -13 c-7 -11 -17 -20 -22 -20 -5 0 -1 9 9 20 10 11 20 20 22 20 2 0 -2
-9 -9 -20z m762 10 c0 -5 -2 -10 -4 -10 -3 0 -8 5 -11 10 -3 6 -1 10 4 10 6 0
11 -4 11 -10z m190 -11 c0 -6 -4 -7 -10 -4 -5 3 -10 11 -10 16 0 6 5 7 10 4 6
-3 10 -11 10 -16z m133 6 c-3 -9 -8 -14 -10 -11 -3 3 -2 9 2 15 9 16 15 13 8
-4z m344 0 c0 -8 -4 -15 -9 -15 -10 0 -11 14 -1 23 9 10 10 9 10 -8z m493 6
c0 -6 -4 -12 -8 -15 -5 -3 -9 1 -9 9 0 8 4 15 9 15 4 0 8 -4 8 -9z m290 -12
c0 -5 -4 -9 -8 -9 -5 0 -9 7 -9 15 0 8 4 12 9 9 4 -3 8 -9 8 -15z m429 18 c-2
-1 -13 -9 -24 -17 -19 -14 -19 -14 -6 3 7 9 18 17 24 17 6 0 8 -1 6 -3z m665
-12 c-4 -8 -11 -15 -16 -15 -6 0 -5 6 2 15 7 8 14 15 16 15 2 0 1 -7 -2 -15z
m-1674 -5 c0 -5 -5 -10 -11 -10 -5 0 -7 5 -4 10 3 6 8 10 11 10 2 0 4 -4 4
-10z m150 -5 c0 -8 -4 -15 -10 -15 -5 0 -7 7 -4 15 4 8 8 15 10 15 2 0 4 -7 4
-15z m1410 11 c0 -3 -4 -8 -10 -11 -5 -3 -10 -1 -10 4 0 6 5 11 10 11 6 0 10
-2 10 -4z m670 0 c0 -3 -4 -8 -10 -11 -5 -3 -10 -1 -10 4 0 6 5 11 10 11 6 0
10 -2 10 -4z m-3260 -16 c0 -5 -2 -10 -4 -10 -3 0 -8 5 -11 10 -3 6 -1 10 4
10 6 0 11 -4 11 -10z m70 6 c0 -2 -8 -10 -17 -17 -16 -13 -17 -12 -4 4 13 16
21 21 21 13z m693 -11 c-3 -9 -8 -14 -10 -11 -3 3 -2 9 2 15 9 16 15 13 8 -4z
m187 5 c0 -5 -5 -10 -11 -10 -5 0 -7 5 -4 10 3 6 8 10 11 10 2 0 4 -4 4 -10z
m180 -5 c0 -12 -19 -12 -23 0 -4 9 -1 12 9 8 7 -3 14 -7 14 -8z m1920 0 c0 -8
-4 -15 -10 -15 -5 0 -7 7 -4 15 4 8 8 15 10 15 2 0 4 -7 4 -15z m460 11 c0 -2
-8 -10 -17 -17 -16 -13 -17 -12 -4 4 13 16 21 21 21 13z m245 -6 c3 -5 1 -10
-4 -10 -6 0 -11 5 -11 10 0 6 2 10 4 10 3 0 8 -4 11 -10z m-2335 -10 c0 -5 -2
-10 -4 -10 -3 0 -8 5 -11 10 -3 6 -1 10 4 10 6 0 11 -4 11 -10z m-259 -33
c-10 -9 -11 -8 -5 6 3 10 9 15 12 12 3 -3 0 -11 -7 -18z"/>
<path d="M3175 6030 c3 -5 8 -10 11 -10 2 0 4 5 4 10 0 6 -5 10 -11 10 -5 0
-7 -4 -4 -10z"/>
<path d="M3848 6033 c7 -3 16 -2 19 1 4 3 -2 6 -13 5 -11 0 -14 -3 -6 -6z"/>
<path d="M3986 6025 c4 -8 8 -15 10 -15 2 0 4 7 4 15 0 8 -4 15 -10 15 -5 0
-7 -7 -4 -15z"/>
<path d="M4078 6033 c7 -3 16 -2 19 1 4 3 -2 6 -13 5 -11 0 -14 -3 -6 -6z"/>
<path d="M4390 6029 c0 -5 5 -7 10 -4 6 3 10 8 10 11 0 2 -4 4 -10 4 -5 0 -10
-5 -10 -11z"/>
<path d="M4673 6020 c-3 -11 -9 -20 -14 -20 -5 0 -9 -4 -9 -10 0 -18 18 -11
25 10 3 11 10 20 15 20 4 0 6 -9 3 -20 -7 -26 9 -26 25 1 11 17 11 20 0 13
-10 -6 -10 -4 1 9 12 15 11 17 -14 17 -18 0 -28 -6 -32 -20z"/>
<path d="M4920 6030 c0 -5 5 -10 10 -10 6 0 10 5 10 10 0 6 -4 10 -10 10 -5 0
-10 -4 -10 -10z"/>
<path d="M5033 6033 c9 -2 23 -2 30 0 6 3 -1 5 -18 5 -16 0 -22 -2 -12 -5z"/>
<path d="M5292 6012 c1 -26 3 -30 10 -18 5 10 5 23 -1 34 -8 14 -10 10 -9 -16z"/>
<path d="M5340 6030 c0 -5 7 -7 15 -4 8 4 15 8 15 10 0 2 -7 4 -15 4 -8 0 -15
-4 -15 -10z"/>
<path d="M5456 6024 c-9 -22 -8 -24 9 -18 8 4 15 12 15 20 0 19 -16 18 -24 -2z"/>
<path d="M5820 6029 c0 -5 5 -7 10 -4 6 3 10 8 10 11 0 2 -4 4 -10 4 -5 0 -10
-5 -10 -11z"/>
<path d="M5943 6033 c9 -2 23 -2 30 0 6 3 -1 5 -18 5 -16 0 -22 -2 -12 -5z"/>
<path d="M6395 6030 c3 -5 8 -10 11 -10 2 0 4 5 4 10 0 6 -5 10 -11 10 -5 0
-7 -4 -4 -10z"/>
<path d="M7038 6033 c7 -3 16 -2 19 1 4 3 -2 6 -13 5 -11 0 -14 -3 -6 -6z"/>
<path d="M7233 6033 c15 -2 39 -2 55 0 15 2 2 4 -28 4 -30 0 -43 -2 -27 -4z"/>
<path d="M3565 6020 c-3 -5 -1 -10 4 -10 6 0 11 5 11 10 0 6 -2 10 -4 10 -3 0
-8 -4 -11 -10z"/>
<path d="M6115 6010 c3 -5 10 -10 16 -10 5 0 9 5 9 10 0 6 -7 10 -16 10 -8 0
-12 -4 -9 -10z"/>
<path d="M4606 5991 c-4 -5 -2 -12 3 -15 5 -4 12 -2 15 3 4 5 2 12 -3 15 -5 4
-12 2 -15 -3z"/>
<path d="M8014 6940 c-124 -38 -99 -240 31 -240 43 0 94 27 115 62 24 39 25
66 6 113 -24 56 -88 84 -152 65z"/>
<path d="M1701 5368 c-35 -24 -69 -50 -74 -59 -8 -13 4 -36 64 -112 l74 -95 3
80 c2 43 2 113 0 154 l-3 75 -64 -43z"/>
<path d="M2385 4799 c-4 -6 -5 -12 -2 -15 2 -3 7 2 10 11 7 17 1 20 -8 4z"/>
<path d="M8479 3593 c-13 -16 -12 -17 4 -4 9 7 17 15 17 17 0 8 -8 3 -21 -13z"/>
<path d="M8413 3540 c-23 -20 -40 -40 -37 -43 3 -3 24 12 47 33 53 51 45 59
-10 10z"/>
<path d="M8310 3526 c0 -2 8 -10 18 -17 15 -13 16 -12 3 4 -13 16 -21 21 -21
13z"/>
<path d="M8180 3469 c0 -5 9 -9 20 -9 11 0 20 2 20 4 0 2 -9 6 -20 9 -11 3
-20 1 -20 -4z"/>
<path d="M8150 3449 c0 -5 5 -7 10 -4 6 3 10 8 10 11 0 2 -4 4 -10 4 -5 0 -10
-5 -10 -11z"/>
<path d="M7776 3435 c-16 -12 -17 -15 -4 -15 9 0 18 -6 21 -12 2 -7 4 -1 3 14
0 16 -1 28 -1 28 0 0 -9 -7 -19 -15z"/>
<path d="M8188 3443 c6 -2 18 -2 25 0 6 3 1 5 -13 5 -14 0 -19 -2 -12 -5z"/>
<path d="M8260 3440 c0 -5 5 -10 11 -10 5 0 7 -5 3 -12 -4 -7 -3 -8 5 -4 9 6
9 11 0 22 -14 17 -19 18 -19 4z"/>
<path d="M7995 3420 c3 -5 8 -10 11 -10 2 0 4 5 4 10 0 6 -5 10 -11 10 -5 0
-7 -4 -4 -10z"/>
<path d="M7726 3405 c-18 -13 -18 -14 3 -12 11 1 21 7 21 14 0 16 0 16 -24 -2z"/>
<path d="M7810 3400 c0 -6 7 -10 15 -10 8 0 15 2 15 4 0 2 -7 6 -15 10 -8 3
-15 1 -15 -4z"/>
<path d="M1927 3420 c27 -28 35 -32 45 -22 11 11 9 12 -6 6 -15 -6 -17 -4 -11
7 4 8 4 11 0 6 -5 -4 -20 3 -34 15 -15 13 -12 8 6 -12z"/>
<path d="M2076 3394 c-3 -8 -2 -13 3 -9 5 3 12 -1 14 -7 4 -8 6 -7 6 4 1 23
-15 32 -23 12z"/>
<path d="M2221 3381 c-1 -20 1 -21 14 -11 16 14 21 25 6 16 -5 -4 -12 0 -14 6
-3 7 -6 2 -6 -11z"/>
<path d="M2027 3383 c-9 -2 -15 -9 -12 -14 4 -5 -1 -9 -10 -9 -9 0 -14 4 -10
9 3 6 -4 9 -16 8 -19 -1 -18 -4 11 -29 18 -15 38 -24 44 -21 6 4 6 8 -2 11
-10 3 -9 10 3 28 8 13 14 23 13 23 -2 -1 -11 -3 -21 -6z"/>
<path d="M2998 3643 c6 -2 18 -2 25 0 6 3 1 5 -13 5 -14 0 -19 -2 -12 -5z"/>
<path d="M7160 3636 c0 -2 9 -6 20 -9 11 -3 20 -1 20 4 0 5 -9 9 -20 9 -11 0
-20 -2 -20 -4z"/>
<path d="M4797 2923 c-4 -3 -7 -11 -7 -17 0 -6 5 -5 12 2 6 6 9 14 7 17 -3 3
-9 2 -12 -2z"/>
<path d="M4820 2900 c0 -5 5 -10 11 -10 5 0 7 5 4 10 -3 6 -8 10 -11 10 -2 0
-4 -4 -4 -10z"/>
<path d="M5025 2889 c-4 -6 -4 -13 -1 -16 3 -4 6 -1 6 5 0 6 8 13 18 15 15 4
15 5 0 6 -9 0 -20 -4 -23 -10z"/>
<path d="M6068 3063 c7 -3 16 -2 19 1 4 3 -2 6 -13 5 -11 0 -14 -3 -6 -6z"/>
<path d="M6330 2890 c0 -5 5 -10 11 -10 5 0 7 5 4 10 -3 6 -8 10 -11 10 -2 0
-4 -4 -4 -10z"/>
<path d="M4140 2638 c0 -4 7 -9 15 -9 8 -1 20 -2 25 -3 6 -1 9 3 8 8 -4 12
-48 15 -48 4z"/>
<path d="M4213 2603 c-3 -7 -2 -20 1 -29 3 -8 2 -13 -3 -10 -11 7 -23 -22 -15
-35 3 -5 1 -9 -5 -9 -15 0 -26 23 -13 28 7 2 12 8 12 13 0 6 -4 7 -10 4 -5 -3
-10 -1 -10 5 0 7 7 10 15 6 11 -4 15 1 14 17 0 12 -3 16 -6 9 -3 -9 -9 -10
-17 -2 -9 7 -23 7 -45 -1 -34 -12 -44 -34 -10 -24 15 5 19 4 15 -4 -4 -6 -2
-11 3 -11 6 0 11 6 11 14 0 8 5 18 11 22 7 4 9 0 6 -12 -16 -51 -19 -77 -10
-71 13 8 39 -10 29 -20 -5 -4 -11 -2 -13 5 -3 6 -9 10 -14 6 -18 -10 -9 -24
16 -24 18 0 25 5 25 20 0 11 4 20 9 20 5 0 7 -9 4 -20 -4 -15 0 -20 16 -20 11
0 21 5 21 11 0 5 -4 8 -9 5 -5 -4 -8 11 -6 34 2 22 -1 43 -6 46 -5 3 -9 10 -9
15 0 6 4 8 9 5 5 -3 11 0 14 7 3 8 -2 14 -10 14 -8 0 -17 -6 -20 -14z m7 -63
c0 -5 -5 -10 -11 -10 -5 0 -7 5 -4 10 3 6 8 10 11 10 2 0 4 -4 4 -10z"/>
<path d="M4068 2525 c-16 -18 -28 -36 -28 -39 0 -3 16 -6 35 -6 36 0 47 13 20
24 -8 3 -15 10 -15 16 0 5 7 10 15 10 8 0 15 4 15 9 0 22 -17 16 -42 -14z m12
-25 c0 -5 -4 -10 -10 -10 -5 0 -10 5 -10 10 0 6 5 10 10 10 6 0 10 -4 10 -10z"/>
<path d="M4120 2539 c0 -5 5 -7 10 -4 6 3 10 8 10 11 0 2 -4 4 -10 4 -5 0 -10
-5 -10 -11z"/>
<path d="M4108 2513 c6 -2 12 -11 12 -19 0 -8 5 -14 10 -14 6 0 10 9 10 20 0
14 -6 20 -22 19 -13 0 -17 -3 -10 -6z"/>
<path d="M8291 2498 c-1 -15 7 -18 42 -17 23 0 35 3 27 6 -8 3 -18 11 -22 17
-5 8 -8 7 -8 -1 0 -7 -6 -13 -14 -13 -8 0 -17 6 -19 13 -3 7 -6 5 -6 -5z"/>
<path d="M8260 2490 c0 -5 5 -10 10 -10 6 0 10 5 10 10 0 6 -4 10 -10 10 -5 0
-10 -4 -10 -10z"/>
<path d="M8518 2483 c7 -3 16 -2 19 1 4 3 -2 6 -13 5 -11 0 -14 -3 -6 -6z"/>
<path d="M7173 2973 c20 -2 54 -2 75 0 20 2 3 4 -38 4 -41 0 -58 -2 -37 -4z"/>
<path d="M7318 2963 c7 -3 16 -2 19 1 4 3 -2 6 -13 5 -11 0 -14 -3 -6 -6z"/>
<path d="M9023 2970 c-13 -5 -23 -12 -23 -15 0 -9 16 -5 36 10 22 16 19 18
-13 5z"/>
</g>
</svg>
