<svg id="visual" viewBox="0 0 900 600" width="900" height="600" xmlns="http://www.w3.org/2000/svg" xmlns:xlink="http://www.w3.org/1999/xlink" version="1.1"><g stroke-width="1" stroke-linejoin="bevel"><path d="M451 339L557 294L420 165Z" fill="#0b0b0b" stroke="#0b0b0b"></path><path d="M557 294L588 126L420 165Z" fill="#0b0b0b" stroke="#0b0b0b"></path><path d="M308 0L306 136L420 165Z" fill="#3a3a3a" stroke="#3a3a3a"></path><path d="M420 165L284 341L451 339Z" fill="#131313" stroke="#131313"></path><path d="M306 136L284 341L420 165Z" fill="#262626" stroke="#262626"></path><path d="M588 126L492 0L420 165Z" fill="#262626" stroke="#262626"></path><path d="M292 464L421 492L451 339Z" fill="#1a1a1a" stroke="#1a1a1a"></path><path d="M451 339L620 490L557 294Z" fill="#2d2d2d" stroke="#2d2d2d"></path><path d="M620 490L711 338L557 294Z" fill="#2d2d2d" stroke="#2d2d2d"></path><path d="M557 294L708 116L588 126Z" fill="#3a3a3a" stroke="#3a3a3a"></path><path d="M711 338L708 116L557 294Z" fill="#484848" stroke="#484848"></path><path d="M588 126L639 0L492 0Z" fill="#262626" stroke="#262626"></path><path d="M284 341L292 464L451 339Z" fill="#2d2d2d" stroke="#2d2d2d"></path><path d="M421 492L620 490L451 339Z" fill="#2d2d2d" stroke="#2d2d2d"></path><path d="M708 116L639 0L588 126Z" fill="#202020" stroke="#202020"></path><path d="M492 0L308 0L420 165Z" fill="#202020" stroke="#202020"></path><path d="M306 136L123 257L284 341Z" fill="#2d2d2d" stroke="#2d2d2d"></path><path d="M620 490L714 443L711 338Z" fill="#1a1a1a" stroke="#1a1a1a"></path><path d="M900 109L730 0L708 116Z" fill="#333333" stroke="#333333"></path><path d="M109 121L123 257L306 136Z" fill="#202020" stroke="#202020"></path><path d="M284 341L150 472L292 464Z" fill="#3a3a3a" stroke="#3a3a3a"></path><path d="M900 305L708 116L711 338Z" fill="#0b0b0b" stroke="#0b0b0b"></path><path d="M708 116L730 0L639 0Z" fill="#1a1a1a" stroke="#1a1a1a"></path><path d="M305 600L476 600L421 492Z" fill="#3a3a3a" stroke="#3a3a3a"></path><path d="M421 492L476 600L620 490Z" fill="#000000" stroke="#000000"></path><path d="M620 490L714 600L714 443Z" fill="#2d2d2d" stroke="#2d2d2d"></path><path d="M476 600L607 600L620 490Z" fill="#3a3a3a" stroke="#3a3a3a"></path><path d="M308 0L109 121L306 136Z" fill="#1a1a1a" stroke="#1a1a1a"></path><path d="M292 464L305 600L421 492Z" fill="#262626" stroke="#262626"></path><path d="M150 472L305 600L292 464Z" fill="#0b0b0b" stroke="#0b0b0b"></path><path d="M123 257L150 472L284 341Z" fill="#202020" stroke="#202020"></path><path d="M607 600L714 600L620 490Z" fill="#000000" stroke="#000000"></path><path d="M900 423L900 305L711 338Z" fill="#0b0b0b" stroke="#0b0b0b"></path><path d="M900 423L711 338L714 443Z" fill="#484848" stroke="#484848"></path><path d="M308 0L112 0L109 121Z" fill="#202020" stroke="#202020"></path><path d="M900 305L900 109L708 116Z" fill="#262626" stroke="#262626"></path><path d="M900 600L900 423L714 443Z" fill="#131313" stroke="#131313"></path><path d="M109 121L0 261L123 257Z" fill="#484848" stroke="#484848"></path><path d="M123 257L0 465L150 472Z" fill="#262626" stroke="#262626"></path><path d="M0 118L0 261L109 121Z" fill="#262626" stroke="#262626"></path><path d="M112 0L0 118L109 121Z" fill="#414141" stroke="#414141"></path><path d="M900 109L900 0L730 0Z" fill="#414141" stroke="#414141"></path><path d="M0 465L126 600L150 472Z" fill="#262626" stroke="#262626"></path><path d="M150 472L126 600L305 600Z" fill="#0b0b0b" stroke="#0b0b0b"></path><path d="M0 261L0 465L123 257Z" fill="#1a1a1a" stroke="#1a1a1a"></path><path d="M112 0L0 0L0 118Z" fill="#0b0b0b" stroke="#0b0b0b"></path><path d="M714 600L900 600L714 443Z" fill="#0b0b0b" stroke="#0b0b0b"></path><path d="M0 465L0 600L126 600Z" fill="#2d2d2d" stroke="#2d2d2d"></path></g></svg>