<svg id="visual" viewBox="0 0 1920 1080" width="1920" height="1080" xmlns="http://www.w3.org/2000/svg" xmlns:xlink="http://www.w3.org/1999/xlink" version="1.1"><g stroke-width="1" stroke-linejoin="bevel"><path d="M982 579L918 812L1261 783Z" fill="#131313" stroke="#131313"></path><path d="M1261 783L1319 552L982 579Z" fill="#131313" stroke="#131313"></path><path d="M918 812L988 1080L1261 783Z" fill="#202020" stroke="#202020"></path><path d="M988 1080L1247 1080L1261 783Z" fill="#333333" stroke="#333333"></path><path d="M1261 783L1573 564L1319 552Z" fill="#0b0b0b" stroke="#0b0b0b"></path><path d="M982 579L631 775L918 812Z" fill="#3a3a3a" stroke="#3a3a3a"></path><path d="M918 812L629 1080L988 1080Z" fill="#1a1a1a" stroke="#1a1a1a"></path><path d="M1294 278L955 294L982 579Z" fill="#262626" stroke="#262626"></path><path d="M982 579L602 500L631 775Z" fill="#0b0b0b" stroke="#0b0b0b"></path><path d="M1319 552L1294 278L982 579Z" fill="#262626" stroke="#262626"></path><path d="M1622 845L1573 564L1261 783Z" fill="#262626" stroke="#262626"></path><path d="M1319 552L1565 234L1294 278Z" fill="#0b0b0b" stroke="#0b0b0b"></path><path d="M955 294L602 500L982 579Z" fill="#2d2d2d" stroke="#2d2d2d"></path><path d="M1247 1080L1622 845L1261 783Z" fill="#414141" stroke="#414141"></path><path d="M283 819L629 1080L631 775Z" fill="#2d2d2d" stroke="#2d2d2d"></path><path d="M631 775L629 1080L918 812Z" fill="#414141" stroke="#414141"></path><path d="M1247 1080L1611 1080L1622 845Z" fill="#3a3a3a" stroke="#3a3a3a"></path><path d="M955 294L660 229L602 500Z" fill="#0b0b0b" stroke="#0b0b0b"></path><path d="M962 0L660 229L955 294Z" fill="#262626" stroke="#262626"></path><path d="M1920 299L1565 234L1573 564Z" fill="#262626" stroke="#262626"></path><path d="M1573 564L1565 234L1319 552Z" fill="#000000" stroke="#000000"></path><path d="M1294 278L962 0L955 294Z" fill="#262626" stroke="#262626"></path><path d="M1313 0L962 0L1294 278Z" fill="#000000" stroke="#000000"></path><path d="M284 297L341 541L602 500Z" fill="#333333" stroke="#333333"></path><path d="M602 500L341 541L631 775Z" fill="#484848" stroke="#484848"></path><path d="M1565 234L1313 0L1294 278Z" fill="#000000" stroke="#000000"></path><path d="M341 541L283 819L631 775Z" fill="#0b0b0b" stroke="#0b0b0b"></path><path d="M660 229L284 297L602 500Z" fill="#484848" stroke="#484848"></path><path d="M962 0L672 0L660 229Z" fill="#000000" stroke="#000000"></path><path d="M1920 1080L1920 823L1622 845Z" fill="#484848" stroke="#484848"></path><path d="M1622 845L1920 578L1573 564Z" fill="#000000" stroke="#000000"></path><path d="M1920 823L1920 578L1622 845Z" fill="#333333" stroke="#333333"></path><path d="M283 819L303 1080L629 1080Z" fill="#2d2d2d" stroke="#2d2d2d"></path><path d="M1920 0L1559 0L1565 234Z" fill="#2d2d2d" stroke="#2d2d2d"></path><path d="M1565 234L1559 0L1313 0Z" fill="#202020" stroke="#202020"></path><path d="M1611 1080L1920 1080L1622 845Z" fill="#414141" stroke="#414141"></path><path d="M348 0L284 297L660 229Z" fill="#000000" stroke="#000000"></path><path d="M0 519L0 850L283 819Z" fill="#414141" stroke="#414141"></path><path d="M1920 578L1920 299L1573 564Z" fill="#414141" stroke="#414141"></path><path d="M672 0L348 0L660 229Z" fill="#202020" stroke="#202020"></path><path d="M0 519L283 819L341 541Z" fill="#0b0b0b" stroke="#0b0b0b"></path><path d="M283 819L0 850L303 1080Z" fill="#333333" stroke="#333333"></path><path d="M0 519L341 541L284 297Z" fill="#131313" stroke="#131313"></path><path d="M0 270L0 519L284 297Z" fill="#202020" stroke="#202020"></path><path d="M1920 299L1920 0L1565 234Z" fill="#333333" stroke="#333333"></path><path d="M0 850L0 1080L303 1080Z" fill="#3a3a3a" stroke="#3a3a3a"></path><path d="M0 0L0 270L284 297Z" fill="#202020" stroke="#202020"></path><path d="M348 0L0 0L284 297Z" fill="#3a3a3a" stroke="#3a3a3a"></path></g></svg>