<?xml version="1.0" standalone="no"?>
<!DOCTYPE svg PUBLIC "-//W3C//DTD SVG 20010904//EN"
 "http://www.w3.org/TR/2001/REC-SVG-20010904/DTD/svg10.dtd">
<svg version="1.0" xmlns="http://www.w3.org/2000/svg"
 width="1024.000000pt" height="1024.000000pt" viewBox="0 0 1024.000000 1024.000000"
 preserveAspectRatio="xMidYMid meet">
<metadata>
Created by potrace 1.16, written by Peter Selinger 2001-2019
</metadata>
<g transform="translate(0.000000,1024.000000) scale(0.100000,-0.100000)"
fill="#000000" stroke="none">
<path d="M0 5120 l0 -5120 5120 0 5120 0 0 5120 0 5120 -5120 0 -5120 0 0
-5120z m7930 3494 c61 -33 100 -89 100 -146 0 -34 -2 -36 -25 -32 -14 2 -25 0
-25 -5 0 -14 -34 -8 -47 9 -7 8 -13 10 -13 4 0 -13 -30 -14 -30 -1 0 5 -7 4
-15 -3 -12 -10 -15 -9 -15 4 0 10 -4 14 -10 11 -5 -3 -10 -1 -10 5 0 7 -6 10
-14 7 -7 -3 -23 1 -34 8 -10 8 -23 11 -27 7 -3 -4 -6 -2 -5 3 5 21 0 36 -10
30 -5 -3 -10 -1 -10 5 0 6 -4 8 -10 5 -5 -3 -10 1 -10 9 0 9 -6 16 -12 16 -10
0 -10 2 0 9 8 4 13 12 12 17 -3 14 44 45 81 54 40 9 94 3 129 -16z m-2465
-747 c386 -64 701 -191 1012 -408 282 -197 535 -475 697 -766 196 -351 284
-674 299 -1093 10 -260 -36 -553 -126 -815 -34 -98 -59 -157 -64 -152 -2 3 9
38 25 78 67 167 115 367 142 586 9 69 8 88 -2 94 -10 7 -10 9 0 9 9 0 12 32
12 125 0 69 -2 125 -4 125 -2 0 -38 -11 -81 -25 -116 -38 -201 -101 -278 -206
l-27 -36 48 8 c78 13 312 23 312 13 0 -5 -35 -8 -77 -8 -164 3 -265 -17 -478
-91 -16 -6 -17 -5 -5 4 8 6 51 23 95 37 63 21 86 34 110 63 116 141 179 189
304 232 55 19 76 30 75 42 0 10 -1 33 -2 52 l-2 35 -2232 0 c-1228 0 -2240 1
-2248 2 -8 1 -50 0 -92 0 l-78 -2 0 -49 c0 -46 2 -49 33 -61 160 -60 227 -107
318 -227 24 -32 48 -61 54 -65 6 -5 6 -8 -1 -8 -6 0 -14 3 -18 7 -8 8 -22 11
-126 23 l-75 9 93 -4 93 -5 -21 30 c-11 16 -48 56 -81 89 -64 64 -171 125
-243 137 l-39 7 6 -204 c7 -217 17 -279 45 -279 36 0 186 -60 206 -82 19 -20
19 -21 1 -6 -26 20 -139 64 -187 73 -29 6 -38 4 -38 -6 1 -24 39 -192 56 -241
l16 -48 126 -2 127 -2 -123 -3 -123 -4 6 -32 c7 -31 40 -121 72 -199 9 -21 19
-35 24 -33 4 3 11 0 15 -6 5 -8 3 -9 -6 -4 -16 10 -6 -23 27 -88 13 -27 22
-51 20 -53 -6 -6 -94 186 -129 281 -98 264 -138 471 -145 742 -11 390 39 678
169 983 127 299 278 528 493 749 358 369 867 619 1398 686 140 18 492 13 622
-8z m2656 -930 c93 -62 86 -181 -13 -233 -85 -44 -188 23 -188 122 0 105 115
169 201 111z m-5826 -210 c74 -42 109 -123 85 -200 -7 -23 -15 -37 -17 -30 -2
7 -20 17 -39 23 -19 6 -32 15 -29 20 3 4 -1 8 -8 7 -39 -1 -58 4 -51 15 4 7 3
8 -4 4 -12 -7 -29 3 -60 36 -12 13 -19 15 -29 6 -10 -8 -13 -8 -11 -1 2 6 -12
24 -30 41 -38 35 -35 50 16 80 50 29 124 29 177 -1z m6289 -707 c-23 -5 -60
-14 -84 -20 l-42 -11 3 -279 c4 -265 5 -280 24 -295 13 -10 15 -13 4 -9 -14 4
-17 -10 -23 -113 -3 -65 -4 -168 -2 -229 l4 -112 47 -43 c25 -23 56 -57 67
-73 12 -17 -3 -5 -31 27 -93 102 -89 107 -91 -125 0 -111 -3 -204 -6 -207 -2
-3 -4 89 -4 204 0 116 1 443 0 728 l0 517 -27 -5 -28 -5 25 11 c44 21 144 48
175 47 25 0 23 -2 -11 -8z m-6746 -1755 c51 -56 100 -125 89 -125 -2 0 -16 18
-31 40 -14 22 -49 62 -76 89 l-50 50 0 382 0 383 -38 45 c-20 25 -57 72 -81
104 -24 31 -47 57 -52 57 -15 0 -108 -124 -134 -179 l-26 -54 32 -41 32 -41
-36 34 -36 34 -15 -49 c-8 -27 -15 -41 -15 -31 -2 35 61 178 103 234 57 77
138 152 209 192 l57 32 2 257 c2 141 4 -105 5 -547 l3 -803 58 -63z m4782 885
c-19 -16 -38 -30 -42 -30 -5 0 -8 -4 -8 -10 0 -6 114 -9 309 -7 170 1 304 -1
298 -5 -7 -4 -932 -7 -2057 -6 -1125 2 -1911 4 -1747 5 193 2 297 7 297 14 0
6 6 6 19 -1 13 -7 479 -10 1435 -10 l1416 0 52 40 c62 47 79 53 28 10z m-4221
-75 c80 -44 146 -108 178 -173 23 -47 28 -72 31 -152 2 -52 0 -105 -5 -118 -6
-16 -9 2 -8 60 0 80 -1 83 -22 80 -13 -2 -23 2 -23 7 0 6 -7 11 -16 11 -14 0
-14 -1 0 -16 9 -8 16 -21 15 -27 0 -9 -2 -8 -6 1 -2 6 -11 12 -19 12 -8 0 -17
7 -20 15 -8 21 -31 19 -44 -5 -10 -19 -11 -19 -32 2 l-21 21 -13 -24 c-7 -13
-13 -19 -14 -14 0 6 -16 15 -36 21 -31 10 -38 9 -52 -7 -12 -14 -18 -15 -24
-6 -6 9 -10 8 -18 -3 -8 -13 -13 -9 -12 10 0 3 -17 6 -39 6 -31 1 -37 -1 -29
-11 9 -11 7 -12 -10 -8 -14 4 -19 11 -15 21 5 13 3 13 -11 1 -13 -11 -18 -11
-21 -1 -6 17 -23 15 -45 -5 -10 -9 -21 -13 -25 -9 -4 4 -1 11 7 16 12 8 10 10
-7 10 -13 0 -23 -5 -23 -11 0 -7 -10 -9 -25 -5 -17 4 -25 2 -25 -6 0 -10 -2
-10 -9 1 -6 9 -10 10 -16 2 -5 -9 -10 -9 -20 -1 -16 14 -35 5 -35 -16 0 -8 -7
-14 -16 -14 -24 0 -13 -94 20 -165 47 -104 105 -160 205 -202 31 -12 49 -23
41 -23 -35 0 -137 60 -178 104 -164 179 -141 455 49 589 76 54 126 67 239 64
84 -2 102 -6 149 -32z m6469 -335 c4 1 36 7 72 15 36 8 79 14 95 13 26 -1 27
-1 5 -5 -224 -35 -441 -152 -544 -292 l-36 -49 -2 -248 -2 -249 -6 235 -5 235
-27 -35 c-43 -57 -95 -160 -124 -245 -21 -62 -29 -108 -34 -205 l-7 -125 -1
101 c-2 131 21 225 93 370 49 99 54 115 45 140 l-10 29 19 -24 19 -25 21 35
c12 19 19 40 16 48 -3 8 0 11 7 9 7 -3 29 14 48 37 19 23 63 64 96 90 35 28
60 55 59 64 -1 9 0 10 2 4 6 -17 1 -19 98 29 l85 42 2 96 2 95 3 -92 c2 -51 7
-93 11 -93z m-1277 143 c-9 -4 -1 -13 22 -27 92 -55 160 -112 229 -188 76 -84
159 -198 145 -198 -2 0 -20 24 -39 53 -80 120 -292 315 -362 333 l-26 6 0
-138 1 -139 121 -110 c119 -107 273 -271 319 -337 29 -43 13 -26 -107 111 -93
107 -307 311 -326 311 -5 0 -8 -136 -8 -302 0 -167 -1 -391 -2 -498 -2 -107
-5 100 -8 460 -5 700 -7 669 40 669 12 -1 12 -2 1 -6z m-1411 -26 c355 -1
-169 -3 -1165 -4 -995 -2 -1805 1 -1798 5 10 6 1260 6 2963 -1z m-1053 -270
l1268 -2 -1530 -3 c-1443 -3 -1529 -4 -1505 -20 14 -9 39 -30 55 -47 17 -16
19 -20 5 -8 -14 12 -52 38 -85 59 -33 20 -51 33 -40 29 22 -7 536 -7 544 0 2
3 -4 15 -15 28 -10 13 -7 10 8 -5 l28 -28 1267 -3z m-12 -259 l1470 -3 -1465
-5 c-1560 -5 -1495 -7 -1533 39 -6 7 4 4 23 -8 l35 -21 1470 -2z m-2700 -131
c-64 -47 -164 -138 -185 -167 -23 -32 -21 -51 2 -33 7 6 49 23 93 38 107 36
295 46 406 21 93 -21 154 -54 155 -84 2 -21 1 -21 -3 -1 -6 26 -89 66 -156 75
-44 6 -46 6 -50 -22 -4 -28 -4 -27 -6 5 l-1 33 -117 -5 c-129 -5 -242 -31
-327 -74 -79 -40 -189 -156 -231 -244 -19 -40 -35 -65 -35 -56 0 10 -7 31 -15
47 -9 17 -13 30 -11 30 3 0 12 -12 19 -27 l14 -26 14 39 c7 21 12 46 11 54 -2
11 0 11 5 3 6 -8 23 7 55 46 25 32 69 76 97 97 27 22 50 46 51 54 0 25 213
221 238 220 4 0 -6 -11 -23 -23z m6364 -232 c87 -30 142 -96 108 -129 -21 -22
-155 -106 -236 -149 l-71 -37 -2 -58 -2 -57 -3 53 c-4 48 -6 51 -20 37 -12
-13 -16 -40 -16 -128 l0 -112 -6 110 -6 110 -127 -124 c-81 -79 -128 -132
-128 -145 0 -13 -3 -17 -8 -9 -5 7 -38 -19 -96 -77 l-90 -89 1 -63 0 -63 -6
60 -6 60 -22 -22 c-24 -24 -189 -145 -213 -156 -8 -4 -28 -16 -45 -26 -16 -11
-34 -20 -39 -20 -6 -1 37 30 95 67 57 38 131 90 164 116 76 61 375 368 368
379 -3 5 -20 -6 -38 -23 -24 -23 -34 -28 -39 -18 -3 7 -4 3 -2 -9 6 -36 -18
-48 -38 -19 -10 15 -12 27 -6 31 6 3 10 11 10 16 0 6 -7 4 -15 -5 -8 -8 -12
-22 -8 -31 5 -14 2 -16 -15 -11 -11 4 -23 2 -27 -4 -5 -8 -11 -8 -21 1 -8 6
-14 8 -14 3 0 -5 -5 -1 -11 9 -14 25 -32 22 -19 -3 13 -25 5 -40 -22 -40 -18
0 -19 2 -7 17 12 15 12 16 -3 10 -10 -3 -18 -2 -18 3 0 6 -5 10 -10 10 -6 0
-8 -12 -4 -27 l6 -28 -22 25 c-15 17 -20 19 -16 8 4 -13 0 -18 -14 -18 -14 0
-18 -5 -13 -17 4 -11 3 -14 -5 -9 -7 4 -12 14 -12 22 0 11 -4 12 -19 4 -26
-14 -41 -13 -41 3 0 7 -5 18 -12 25 -9 9 -17 6 -35 -15 -19 -24 -22 -25 -23
-9 0 18 -1 18 -12 4 -15 -18 -58 -30 -58 -16 0 14 -79 -1 -110 -21 -14 -8 -51
-41 -82 -72 -32 -30 -58 -53 -58 -49 0 4 35 42 78 84 194 194 442 287 882 331
94 10 390 168 390 209 0 20 -41 53 -93 76 -128 57 -277 24 -396 -87 -57 -54
-120 -154 -122 -192 -1 -21 -3 -19 -8 9 -4 19 -11 46 -15 59 -6 16 -5 21 3 17
6 -4 11 -14 11 -22 0 -27 15 -13 50 48 49 85 138 158 235 192 53 19 172 20
224 1z m-7314 -192 c17 -11 67 -39 112 -62 74 -38 96 -44 230 -61 81 -11 182
-27 223 -36 91 -20 285 -86 350 -119 26 -13 50 -21 54 -18 3 4 6 0 6 -8 0 -8
20 -25 45 -38 42 -22 64 -50 29 -37 -13 5 -14 3 -6 -6 7 -9 7 -18 -3 -31 -10
-14 -14 -15 -18 -5 -5 11 -7 11 -15 0 -7 -11 -10 -11 -15 3 -4 9 -3 14 2 11 5
-3 11 0 14 7 4 10 -5 12 -30 10 -20 -1 -38 -5 -42 -9 -3 -4 4 -4 17 -1 13 3
22 1 22 -6 0 -8 -19 -12 -50 -12 -43 0 -50 3 -51 20 -1 15 -2 16 -6 4 -3 -11
-11 -15 -24 -12 -24 7 -25 -5 -1 -23 16 -12 15 -13 -5 -8 -12 4 -24 12 -27 20
-7 17 -27 19 -22 2 1 -7 1 -10 -1 -5 -8 13 -23 7 -24 -10 0 -14 -2 -15 -6 -3
-17 42 -63 55 -63 18 0 -19 2 -20 10 -8 6 9 10 10 10 3 0 -18 -21 -27 -30 -13
-4 7 -13 9 -19 6 -6 -4 -11 -2 -11 4 0 6 7 13 15 16 21 8 19 21 -5 27 -10 3
-19 2 -18 -2 3 -24 -4 -33 -23 -28 -23 6 -49 -1 -49 -13 0 -4 11 -6 25 -5 17
2 25 -2 25 -12 0 -13 -3 -13 -16 -3 -12 11 -18 10 -31 -3 -15 -15 -8 -23 78
-105 134 -127 182 -167 263 -219 82 -54 105 -72 59 -49 -17 9 -35 20 -38 26
-15 24 -24 5 -28 -57 l-4 -68 1 70 1 70 -55 41 c-30 23 -86 69 -125 102 -48
42 -73 57 -78 49 -6 -8 -7 -6 -4 4 4 11 -10 31 -39 58 -25 22 -46 41 -49 41
-2 0 -6 -24 -8 -52 l-3 -53 -2 63 c-2 62 -2 63 -61 124 -56 57 -60 59 -64 37
-5 -22 -5 -22 -4 2 2 30 -20 62 -36 52 -5 -3 -7 -1 -4 4 4 6 -33 48 -81 93
l-87 83 -7 -39 -6 -39 1 43 c1 28 -4 46 -13 52 -24 15 -30 12 -31 -17 -1 -25
-2 -24 -8 6 -11 63 -30 48 -34 -26 l-4 -68 1 71 1 71 -40 23 c-86 49 -146 93
-167 123 -19 29 -17 28 23 -9 24 -22 58 -50 74 -61z m8033 -92 c30 -21 69 -73
43 -57 -6 4 -11 1 -11 -6 0 -7 -7 -2 -16 10 -18 26 -33 21 -35 -11 -1 -18 -2
-19 -6 -4 -5 20 -30 17 -25 -3 2 -10 0 -11 -11 -2 -8 7 -17 9 -20 5 -4 -3 -7
-1 -7 6 0 7 -6 11 -12 8 -7 -2 -21 0 -30 4 -10 6 -19 5 -23 -2 -5 -7 -13 -5
-26 7 -10 9 -25 14 -35 10 -30 -11 5 23 45 45 48 26 126 21 169 -10z m-2207
-32 c21 -12 52 -43 70 -68 18 -25 26 -40 17 -33 -16 12 -17 7 -21 -55 l-3 -68
-2 76 c-2 73 -3 77 -27 83 -14 4 -25 11 -25 17 0 6 6 7 13 3 8 -5 8 -2 -2 9
-14 18 -26 23 -16 8 3 -5 -8 -9 -24 -9 -17 1 -29 4 -27 7 2 3 -2 12 -10 19 -8
7 -14 8 -14 3 0 -13 -29 -41 -41 -41 -6 0 -8 4 -4 9 3 6 -3 9 -12 9 -10 0 -26
3 -36 7 -13 6 -16 4 -11 -9 4 -10 1 -16 -9 -16 -15 0 -22 -43 -30 -200 -2 -30
-4 -12 -5 41 -3 153 4 183 47 207 49 29 121 29 172 1z m-2046 -524 c33 -9 80
-26 105 -37 83 -40 200 -169 238 -263 13 -32 13 -32 -34 30 -12 16 -14 17 -10
3 3 -10 1 -18 -4 -18 -6 0 -10 8 -10 18 0 14 -2 15 -10 2 -8 -12 -10 -12 -11
5 0 11 -3 14 -6 8 -2 -7 -14 -13 -25 -13 -15 0 -19 5 -15 20 3 11 1 18 -4 14
-5 -3 -9 -15 -9 -27 0 -16 -3 -19 -9 -8 -5 7 -13 11 -18 8 -5 -3 -22 0 -37 8
-20 11 -33 12 -47 4 -11 -5 -24 -7 -29 -4 -6 4 -18 -1 -27 -11 -16 -15 -17
-15 -26 7 -8 20 -11 21 -14 7 -3 -10 -9 -18 -14 -18 -6 0 -7 9 -4 21 6 19 5
20 -8 8 -8 -8 -13 -17 -10 -21 2 -5 -1 -8 -6 -8 -6 0 -11 4 -11 10 0 6 -9 6
-25 0 -27 -10 -33 -2 -13 18 8 8 9 12 1 12 -6 0 -18 -7 -26 -15 -12 -11 -17
-12 -20 -2 -4 8 -8 9 -14 1 -13 -17 -43 -25 -43 -11 0 8 -3 8 -9 -2 -5 -8 -16
-11 -26 -8 -9 4 -14 11 -11 15 7 12 -26 11 -41 -1 -9 -6 -13 -5 -13 3 0 9 -7
7 -20 -5 -16 -15 -20 -15 -20 -3 0 8 -7 15 -15 15 -8 0 -15 -3 -15 -7 0 -9
-78 -6 -87 3 -12 12 -34 7 -28 -5 4 -7 -1 -4 -9 6 -9 12 -16 14 -16 7 0 -8 -7
-10 -19 -6 -12 4 -21 0 -25 -11 -4 -9 -9 -14 -12 -11 -10 10 62 112 108 153
124 109 295 150 453 109z m995 -75 c123 -48 256 -163 310 -270 16 -32 11 -26
-39 40 -45 59 -168 171 -185 168 -6 -1 -21 4 -34 10 -27 15 -174 63 -179 59
-2 -2 40 -21 92 -41 69 -28 108 -50 143 -83 38 -36 40 -39 11 -19 -75 54 -267
128 -394 152 l-40 7 30 8 c17 4 68 6 115 5 67 -3 103 -10 170 -36z m-3042 -42
c217 -89 364 -259 394 -456 l12 -72 215 0 c129 0 210 4 202 9 -8 5 -24 8 -35
7 -16 -2 -22 3 -24 18 -1 14 2 16 7 8 4 -7 15 -10 24 -6 10 3 17 1 17 -5 0 -6
5 -11 10 -11 6 0 10 9 10 20 0 11 -4 20 -10 20 -5 0 -10 4 -10 10 0 5 7 7 15
4 8 -4 15 -1 15 5 0 6 -5 11 -11 11 -5 0 -7 5 -4 11 5 6 12 4 20 -8 9 -12 10
-20 3 -24 -6 -4 -7 -9 0 -13 15 -9 43 29 36 48 -4 11 -2 16 7 14 10 -2 13 5
11 22 -4 24 -3 25 12 5 13 -17 15 -18 16 -3 0 9 -3 19 -8 21 -12 8 -62 -4 -62
-15 0 -6 7 -8 15 -4 8 3 15 1 15 -4 0 -6 -3 -11 -7 -11 -22 -4 -60 -10 -71
-11 -7 -1 -11 -7 -8 -15 4 -11 1 -11 -14 -3 -11 6 -20 13 -20 16 0 3 5 2 10
-1 6 -3 10 -1 10 5 0 6 6 10 13 9 23 -3 37 1 37 10 0 5 -12 8 -27 6 -16 -2
-28 -4 -28 -5 0 -1 -7 -3 -16 -5 -9 -1 -26 -6 -38 -10 -30 -9 -26 2 7 18 57
30 262 50 262 26 0 -5 5 -7 12 -3 7 4 8 3 4 -4 -4 -7 -2 -12 3 -12 6 0 11 6
11 13 0 9 2 9 8 -1 5 -7 18 -14 30 -17 32 -6 66 -32 53 -40 -6 -3 -11 -2 -11
3 0 16 -52 25 -61 10 -10 -15 26 -32 44 -21 7 4 6 0 -1 -10 -12 -14 -11 -16
15 -14 23 2 28 -2 30 -23 2 -24 2 -24 -5 -2 -4 13 -11 22 -17 21 -19 -5 -37
-30 -31 -44 3 -8 1 -15 -3 -15 -15 0 -22 33 -9 42 10 8 10 11 0 15 -6 2 -10 9
-6 14 3 5 1 9 -5 9 -16 0 -22 -18 -9 -24 10 -5 10 -7 1 -12 -9 -4 -9 -11 -1
-30 l11 -24 1994 0 c1096 0 1993 4 1993 8 0 5 -7 17 -16 28 -14 18 -15 18 -10
-6 3 -14 3 -19 0 -11 -5 11 -8 11 -16 0 -6 -10 -7 -6 -3 11 6 25 6 25 -11 5
-16 -19 -16 -19 -10 10 6 29 6 29 -7 7 -12 -20 -15 -21 -26 -8 -7 8 -19 12
-27 9 -15 -6 -19 7 -6 23 4 5 -2 0 -14 -11 -12 -12 -23 -27 -26 -35 -8 -22
-28 58 -28 111 0 130 77 237 201 278 62 20 168 17 221 -6 101 -45 172 -142
185 -253 6 -53 -11 -140 -30 -152 -7 -4 237 -8 542 -8 305 0 552 -2 549 -5 -7
-7 -1383 -14 -3025 -15 -973 0 -1243 -3 -1243 -13 0 -8 -2 -9 -8 -1 -10 17
-81 12 -92 -6 -9 -13 -10 -13 -10 0 0 22 -41 23 -56 2 -13 -16 -13 -16 -14 1
0 13 -4 16 -17 9 -16 -7 -38 -9 -45 -2 -9 7 -145 4 -155 -3 -8 -6 -13 -6 -13
0 0 13 -261 14 -277 1 -9 -7 -13 -7 -13 0 0 7 -182 11 -572 11 -1548 2 -3772
11 -3776 16 -3 3 445 5 996 5 l1002 0 0 38 c1 104 62 252 134 321 19 19 32 39
29 45 -3 6 -3 8 1 4 5 -4 33 10 65 31 143 97 223 122 386 118 102 -3 130 -7
183 -29z m2762 1 c25 -5 81 -24 125 -41 44 -17 102 -39 128 -49 48 -18 165
-97 166 -111 1 -5 -22 9 -50 29 -29 20 -98 53 -158 74 -58 21 -131 46 -161 57
-67 24 -129 38 -115 25 6 -5 28 -15 50 -22 74 -23 145 -53 145 -61 0 -4 20
-11 44 -14 61 -9 175 -67 211 -107 l30 -33 -34 28 c-46 37 -113 69 -191 91
-36 10 -72 24 -80 31 -8 7 -40 20 -70 29 -30 10 -80 28 -110 41 -30 12 -68 25
-84 29 -22 5 -26 9 -16 15 15 9 102 4 170 -11z m-4732 -35 c111 -37 187 -90
264 -186 32 -41 31 -52 -1 -16 -16 17 -23 19 -35 9 -10 -8 -16 -9 -21 -1 -9
14 4 32 17 24 7 -5 8 -2 3 6 -6 10 -12 8 -27 -9 -10 -13 -18 -19 -19 -15 0 5
-4 0 -9 -11 -8 -19 -9 -19 -9 2 -1 16 -7 21 -22 20 -14 -1 -19 -7 -16 -18 3
-12 0 -16 -9 -12 -7 2 -10 11 -8 18 7 16 -12 29 -21 15 -5 -7 -12 -5 -22 7
-13 17 -14 17 -9 1 3 -12 0 -18 -9 -18 -8 0 -15 -4 -15 -10 0 -5 -4 -10 -10
-10 -5 0 -10 6 -10 13 0 6 -11 12 -24 12 -16 0 -22 -4 -18 -14 4 -10 -5 -7
-25 7 -18 12 -34 18 -37 13 -4 -5 -26 -8 -51 -5 -27 2 -45 0 -45 -6 0 -5 -6
-10 -14 -10 -10 0 -13 8 -11 23 4 19 2 20 -8 7 -7 -9 -20 -14 -29 -12 -26 5
-22 -7 5 -18 21 -8 21 -9 -5 -9 -18 -1 -28 4 -28 13 0 9 -7 12 -20 9 -11 -3
-20 -9 -20 -14 0 -5 -9 -4 -19 3 -11 7 -18 16 -15 20 3 4 -3 5 -12 1 -12 -4
-15 -3 -10 5 4 7 2 12 -3 12 -14 0 -14 -17 -1 -25 14 -9 12 -22 -4 -28 -10 -4
-13 -1 -9 9 4 12 0 14 -21 8 -24 -6 -38 8 -18 19 4 2 1 2 -7 0 -8 -2 -18 1
-21 8 -6 8 -9 8 -14 0 -4 -6 -2 -11 3 -11 6 0 11 -4 11 -9 0 -5 -11 -4 -25 2
-16 8 -23 17 -19 27 4 12 3 12 -7 3 -7 -7 -24 -9 -41 -6 -21 4 -27 2 -25 -8 2
-8 2 -11 0 -6 -3 4 -10 4 -16 0 -7 -4 0 9 14 28 15 18 54 53 87 75 148 102
318 125 490 68z m6150 9 c88 -35 182 -94 227 -144 59 -65 147 -214 115 -194
-6 3 -10 11 -10 17 0 18 -97 143 -150 192 -49 46 -140 97 -170 95 -13 -1 -13
-1 0 -6 94 -33 193 -112 232 -185 10 -17 27 -42 38 -55 22 -25 44 -73 37 -80
-3 -2 -10 10 -17 26 -7 17 -18 36 -26 42 -8 6 -26 32 -40 58 -14 25 -47 62
-72 81 -54 39 -212 110 -245 109 -12 0 4 -9 36 -19 32 -11 84 -33 116 -50 62
-34 169 -125 158 -136 -4 -4 -24 9 -46 29 -64 58 -111 84 -206 118 -78 27 -99
30 -154 25 -80 -7 -203 -47 -264 -86 -39 -25 -74 -64 -145 -167 -7 -10 2 10
20 45 81 156 146 195 398 241 l55 10 -60 -5 c-187 -15 -322 -79 -382 -181 -14
-24 -28 -43 -32 -43 -3 0 -12 -14 -20 -31 -7 -16 -15 -28 -17 -26 -6 6 28 87
38 87 4 0 8 4 8 10 0 20 -28 -3 -49 -40 -29 -51 -38 -52 -12 -2 33 65 138 159
226 203 44 22 69 37 55 34 -106 -29 -254 -147 -315 -249 -40 -69 -46 -67 -11
2 53 102 159 202 265 249 87 39 149 52 254 52 84 1 108 -3 165 -26z m1924 13
c29 -7 71 -22 93 -31 l40 -18 -32 -7 c-17 -4 -51 -19 -75 -33 -45 -26 -128
-108 -128 -127 0 -5 -4 -10 -10 -10 -12 0 8 48 31 75 10 11 18 25 19 30 0 6
24 25 53 43 60 37 47 43 -21 8 -57 -29 -73 -47 -98 -108 -10 -27 -22 -48 -26
-48 -4 0 2 20 13 45 29 65 19 75 -19 21 -34 -47 -51 -61 -33 -28 22 41 102
119 140 137 22 11 41 23 41 27 0 14 -55 -14 -109 -54 -50 -38 -69 -56 -106
-103 -14 -17 -14 -15 1 15 21 44 62 100 74 100 5 0 26 11 46 25 20 14 31 25
25 25 -29 0 -93 -44 -135 -92 -25 -29 -46 -47 -46 -40 0 7 29 43 65 79 35 37
63 69 60 71 -6 6 -104 -88 -147 -141 -21 -27 -38 -45 -38 -40 0 17 39 70 87
120 53 54 45 57 -23 11 -45 -30 -60 -35 -48 -16 4 7 3 8 -5 4 -6 -4 -9 -11 -6
-15 2 -5 -7 -19 -20 -31 -14 -13 -25 -20 -25 -16 0 4 10 16 23 27 31 26 10 23
-40 -5 -23 -13 -40 -19 -37 -12 3 7 25 22 51 35 25 12 43 24 40 28 -6 5 -68
-24 -142 -67 -45 -26 -39 -17 20 26 119 90 305 127 447 90z m-1986 -117 c32
-11 74 -26 93 -32 41 -15 156 -118 178 -161 13 -26 8 -23 -27 17 -38 43 -130
116 -130 103 0 -3 -31 8 -69 24 -87 37 -171 40 -275 9 -120 -35 -191 -89 -232
-174 -25 -52 -28 -36 -3 19 43 98 109 149 249 190 105 31 141 32 216 5z m22
-56 c20 -8 45 -22 54 -30 9 -8 21 -12 26 -9 13 8 104 -64 133 -106 20 -29 17
-28 -27 13 -51 47 -94 76 -94 62 0 -4 21 -30 48 -57 l47 -50 -45 39 c-25 21
-51 47 -58 57 -25 34 -127 78 -179 77 l-48 -1 59 -14 c72 -17 108 -39 166
-100 l45 -47 -59 47 c-70 56 -110 74 -182 82 -31 4 -51 11 -48 16 4 6 -1 8
-12 5 -11 -4 -41 -11 -69 -18 -76 -18 -118 -43 -169 -100 -54 -60 -60 -56 -12
10 34 46 81 89 101 91 6 1 15 6 21 11 6 5 45 18 85 29 81 22 154 19 217 -7z"/>
<path d="M2885 6030 c-3 -4 -13 -6 -24 -3 -12 3 -20 -2 -24 -16 -3 -12 -2 -19
3 -16 4 3 11 -2 14 -11 4 -11 2 -15 -8 -11 -16 6 -29 -40 -14 -49 6 -4 6 -9 1
-13 -8 -6 -33 -90 -33 -111 0 -7 804 -10 2323 -10 l2323 0 -7 58 c-4 31 -8 68
-9 82 -1 23 -2 23 -10 5 -5 -11 -9 -16 -9 -11 -1 5 -7 3 -14 -3 -8 -6 -17 -8
-20 -5 -4 4 5 15 18 26 24 19 35 68 15 68 -5 0 -7 -7 -4 -15 4 -10 0 -15 -15
-15 -23 0 -28 15 -8 24 6 3 1 3 -12 0 -14 -4 -27 -1 -32 7 -8 11 -14 9 -30
-11 -18 -22 -21 -22 -17 -5 3 17 -3 20 -39 21 l-43 1 6 -39 c5 -25 3 -38 -5
-38 -7 0 -9 10 -5 28 4 22 3 24 -6 12 -9 -12 -10 -6 -6 25 6 37 5 38 -7 17
l-13 -23 -12 23 -12 23 5 -25 c5 -25 5 -25 -6 -2 -9 16 -21 22 -43 21 -19 0
-25 -3 -16 -7 17 -8 25 -32 11 -32 -5 0 -12 6 -15 13 -3 6 -5 3 -3 -8 3 -26
19 -24 34 6 7 13 13 19 13 12 0 -7 12 -24 27 -38 15 -14 22 -25 15 -25 -8 0
-20 7 -29 15 -18 19 -33 11 -34 -18 0 -22 0 -22 -10 1 -5 13 -13 20 -19 17 -6
-4 -10 5 -10 19 0 21 -5 26 -25 26 -18 0 -25 -5 -25 -19 0 -11 -5 -23 -10 -26
-7 -4 -9 2 -4 19 5 20 2 26 -10 26 -9 0 -16 -6 -16 -12 0 -9 -3 -8 -10 2 -6 9
-5 17 3 23 7 5 1 5 -13 1 -14 -4 -28 -11 -31 -17 -4 -5 -11 -1 -18 9 -6 11
-11 13 -11 6 0 -7 7 -24 16 -37 15 -23 15 -25 0 -25 -10 0 -14 5 -11 10 3 6 0
17 -9 25 -11 11 -16 12 -20 2 -4 -6 -4 -2 -2 10 3 16 0 20 -11 16 -8 -3 -12
-11 -10 -18 3 -6 -1 -12 -9 -12 -9 0 -13 7 -9 21 5 19 4 19 -6 -1 -15 -28 -33
-30 -24 -3 5 16 2 20 -19 20 -21 0 -26 -5 -25 -22 1 -17 2 -19 6 -5 2 9 11 17
19 17 18 0 18 -5 -2 -24 -22 -23 -34 -20 -34 9 0 20 -5 25 -26 25 -15 0 -23
-4 -19 -11 4 -6 13 -8 21 -5 16 6 18 -12 5 -33 -6 -9 -11 -10 -15 -2 -4 6 -5
11 -2 11 3 0 -4 10 -15 21 -16 16 -23 18 -29 9 -6 -9 -9 -9 -13 1 -4 10 -6 10
-6 2 -1 -9 -8 -10 -26 -3 -29 11 -30 11 -10 -38 12 -29 12 -33 1 -19 -12 16
-14 16 -20 1 -9 -22 -8 -26 6 -18 7 5 8 3 3 -5 -5 -9 -10 -10 -18 -2 -7 7 -7
18 2 37 8 19 9 30 1 38 -7 7 -10 5 -10 -5 0 -8 -6 -24 -14 -35 -16 -20 -16 -5
-1 29 4 10 5 21 1 24 -3 4 -6 -1 -6 -10 0 -20 -16 -23 -23 -4 -3 9 -9 9 -28
-2 -15 -9 -24 -10 -27 -3 -2 6 -10 8 -18 5 -8 -3 -14 0 -14 6 0 6 -8 11 -17
11 -15 0 -14 -2 3 -14 14 -11 16 -17 7 -27 -6 -6 -9 -18 -6 -27 4 -10 2 -13
-5 -8 -7 4 -10 17 -6 32 4 14 2 24 -4 24 -6 0 -13 -8 -15 -17 -4 -17 -5 -17
-6 0 0 10 -5 15 -11 12 -5 -3 -10 1 -10 9 0 9 -4 16 -10 16 -13 0 -13 -6 0
-31 7 -13 7 -19 0 -19 -5 0 -10 7 -10 15 0 8 -4 15 -10 15 -5 0 -10 -6 -10
-12 0 -9 -3 -8 -10 2 -7 11 -5 17 8 22 10 4 -2 6 -28 6 -25 0 -37 -2 -27 -5
21 -6 22 -19 1 -31 -9 -5 -14 -15 -10 -21 4 -6 11 -9 16 -6 4 3 6 -5 2 -17 -5
-21 -5 -21 -14 3 -9 24 -10 24 -25 4 -15 -20 -15 -20 -9 2 8 25 -9 40 -21 19
-6 -11 -13 -12 -23 -6 -13 8 -13 10 2 10 9 0 20 10 24 22 l7 23 8 -23 c8 -22
29 -22 29 -1 0 6 -5 7 -12 3 -8 -5 -9 -2 -5 9 10 28 -38 22 -50 -5 l-10 -23
-7 23 c-9 27 -31 29 -33 2 -1 -11 2 -18 8 -15 5 4 9 -3 9 -13 0 -11 -7 -22
-15 -26 -8 -3 -15 -1 -15 4 0 6 5 10 11 10 5 0 7 5 3 12 -5 8 -11 6 -19 -5
-15 -21 -29 -22 -21 -2 8 21 -20 19 -34 -2 -6 -10 -9 -11 -6 -3 3 8 9 23 12
32 3 9 16 19 28 21 11 2 1 4 -24 4 -25 1 -37 -1 -27 -4 25 -7 21 -24 -5 -19
-13 2 -22 9 -20 15 1 6 -8 11 -20 10 -13 0 -17 -3 -10 -6 6 -2 12 -14 12 -25
0 -15 5 -18 20 -13 14 5 18 2 15 -7 -3 -8 -21 -14 -41 -15 -30 -1 -33 1 -18
11 18 13 12 36 -9 36 -8 0 -8 -3 1 -9 11 -7 11 -9 -2 -14 -9 -4 -16 -2 -16 4
0 6 -7 9 -16 7 -8 -2 -14 -7 -14 -12 1 -5 -4 -12 -11 -17 -9 -5 -5 -11 14 -20
14 -6 24 -16 21 -21 -3 -4 -12 -1 -20 7 -9 8 -20 13 -25 10 -5 -4 -9 -2 -9 4
0 6 -7 7 -17 4 -11 -4 -14 -3 -9 5 4 7 13 12 21 12 22 0 28 33 9 47 -23 17
-34 16 -34 -2 0 -8 7 -15 15 -15 8 0 15 -4 15 -10 0 -15 -16 -12 -30 5 -16 19
-30 19 -30 1 0 -7 -7 -19 -15 -26 -17 -14 -21 0 -4 17 7 7 3 11 -15 11 -14 0
-24 -5 -23 -10 1 -6 -4 -13 -11 -15 -8 -3 -10 1 -6 11 3 9 1 16 -5 16 -6 0 -8
6 -5 13 3 8 -3 13 -16 13 -22 0 -27 -12 -7 -19 6 -3 2 -6 -10 -6 -15 -1 -23 5
-23 16 0 15 -14 10 -15 -5 -2 -24 -17 -62 -25 -62 -6 0 -10 -8 -11 -17 0 -11
-2 -13 -6 -5 -3 7 2 23 11 36 24 37 17 61 -18 63 -24 2 -34 -3 -42 -21 -7 -15
-8 -30 -2 -40 7 -12 5 -14 -6 -10 -8 3 -13 14 -11 26 3 11 -2 26 -10 34 -18
19 -25 18 -25 -3 -1 -17 -2 -17 -15 0 -13 18 -15 17 -45 -12 -19 -18 -29 -35
-24 -42 4 -8 3 -9 -4 -5 -7 4 -12 14 -12 22 0 8 -4 14 -10 14 -5 0 -10 -4 -10
-10 0 -5 -5 -10 -12 -10 -9 0 -9 3 0 12 14 14 16 32 3 23 -5 -3 -17 2 -25 11
-15 14 -16 14 -16 0 0 -9 -7 -16 -15 -16 -8 0 -12 -6 -9 -13 3 -8 -2 -20 -11
-27 -9 -7 -15 -8 -15 -2 0 6 5 12 11 14 13 4 -9 58 -23 58 -5 0 -6 -5 -3 -11
11 -16 -4 -59 -20 -59 -8 0 -15 -4 -15 -10 0 -5 5 -10 10 -10 6 0 10 -6 10
-12 0 -7 -11 -1 -24 12 -23 23 -23 26 -7 40 19 18 16 50 -5 50 -8 0 -13 -3
-11 -8 3 -4 -3 -24 -13 -44 -13 -27 -15 -40 -6 -48 7 -8 3 -8 -11 1 -16 10
-19 17 -12 30 5 10 14 21 19 24 13 8 13 45 0 45 -5 0 -10 -8 -10 -19 0 -10 -8
-25 -17 -32 -15 -11 -16 -11 -5 1 26 30 15 48 -30 47 -24 0 -35 -2 -25 -4 9
-3 17 -8 18 -11 0 -4 3 -19 5 -34 3 -17 0 -28 -6 -28 -6 0 -10 12 -8 27 2 16
-2 28 -11 31 -10 3 -12 0 -8 -12 4 -9 2 -15 -5 -13 -6 1 -13 -4 -16 -12 -3 -8
0 -11 7 -7 6 4 11 3 11 -2 0 -6 -6 -12 -14 -15 -9 -4 -15 4 -18 23 -3 20 -1
27 9 23 8 -3 13 3 13 17 0 18 -3 20 -14 11 -11 -9 -15 -9 -19 1 -3 7 -6 -4 -6
-25 -1 -21 -5 -36 -10 -33 -5 3 -7 16 -4 29 4 19 1 18 -21 -10 -18 -22 -32
-30 -46 -26 -11 3 -20 9 -20 14 0 13 14 11 28 -3 9 -9 12 -8 12 6 0 9 -4 14
-10 11 -5 -3 -10 -1 -10 4 0 15 13 14 29 -1 11 -11 13 -10 9 2 -7 21 -35 24
-54 6 -16 -16 -34 -13 -34 5 0 6 4 7 10 4 6 -3 7 1 4 10 -6 14 -8 14 -20 -2
-7 -10 -14 -26 -14 -35 0 -25 -36 -23 -36 1 0 15 3 17 13 9 17 -14 16 2 -1 25
-13 16 -14 16 -20 -5 -5 -19 -8 -20 -15 -8 -5 8 -7 18 -5 22 3 4 1 8 -5 8 -5
0 -12 -6 -14 -12 -4 -10 -6 -10 -6 0 -1 6 -8 12 -17 12 -12 0 -15 -6 -11 -21
4 -16 3 -18 -9 -8 -7 6 -11 15 -8 20 3 5 -4 9 -15 9 -15 0 -21 -7 -21 -22 0
-19 -2 -20 -11 -8 -9 12 -10 10 -6 -8 4 -17 2 -22 -8 -18 -8 3 -15 0 -17 -6
-5 -15 -61 -17 -70 -4 -6 8 -11 7 -16 -2 -6 -8 -18 -11 -35 -7 -28 7 -42 30
-25 41 7 4 8 3 4 -4 -4 -7 -1 -12 8 -12 8 0 16 6 19 13 3 9 7 9 20 -2 14 -11
18 -11 23 2 11 28 -6 37 -71 37 -56 0 -64 -2 -58 -16 4 -12 2 -15 -8 -12 -8 3
-13 10 -12 15 1 5 -16 10 -38 11 -21 1 -39 -2 -39 -6 0 -13 -57 -71 -64 -65
-3 3 -1 12 5 20 9 10 8 17 -1 28 -7 9 -8 15 -2 15 5 0 13 -7 16 -16 4 -9 9
-15 11 -12 3 3 3 13 -1 22 -7 19 -40 22 -48 4 -5 -10 -7 -10 -12 0 -8 17 -34
15 -34 -4 0 -8 -5 -12 -10 -9 -6 4 -8 11 -5 16 4 5 2 9 -2 9 -5 0 -15 -16 -21
-35 -10 -25 -17 -32 -29 -28 -14 6 -14 8 -2 11 17 6 29 22 29 42 -1 12 -3 11
-11 -2 -12 -22 -33 -24 -25 -3 4 11 -1 15 -17 15 -18 0 -19 -2 -7 -10 12 -8
11 -10 -7 -10 -13 0 -23 5 -23 10 0 6 -6 10 -13 10 -17 0 -16 -41 1 -60 13
-12 14 -11 8 8 -5 13 -3 22 3 22 12 0 14 -20 5 -44 -5 -12 -10 -11 -31 10 -21
21 -23 28 -12 35 9 6 3 8 -18 6 -33 -2 -43 -12 -20 -20 6 -2 9 -8 5 -12 -4 -4
-15 6 -25 24 -10 17 -22 31 -26 31 -5 0 -5 -4 -2 -10 3 -5 -1 -10 -9 -10 -9 0
-15 -3 -14 -7 0 -5 -2 -16 -6 -25 -11 -24 -36 -23 -29 1 3 11 -2 21 -13 25
-17 7 -34 -8 -34 -29 0 -6 -9 -11 -20 -12 -24 -2 -27 12 -4 21 9 3 14 13 11
20 -4 9 1 17 11 19 13 4 12 5 -5 6 -15 1 -24 -7 -32 -29 -11 -33 -32 -42 -24
-10 3 11 0 20 -6 20 -10 0 -15 -20 -12 -47 1 -7 -3 -13 -9 -13 -5 0 -10 7 -10
15 0 8 -3 15 -6 15 -3 0 -12 -7 -20 -15 -18 -17 -34 -20 -34 -5 0 6 7 10 15
10 9 0 18 7 21 15 5 12 10 13 20 4 11 -9 14 -8 14 5 0 9 -7 16 -16 16 -8 0
-12 5 -9 10 3 6 -4 10 -17 10 -13 0 -18 -4 -13 -8 16 -11 16 -30 0 -36 -10 -3
-12 0 -8 12 6 15 5 15 -10 3 -9 -7 -17 -20 -17 -27 0 -8 -4 -14 -10 -14 -6 0
-5 10 2 26 10 21 9 27 -3 34 -10 7 -16 4 -21 -8 -6 -15 -7 -14 -8 3 -1 20 -1
20 -15 1 -13 -17 -15 -18 -15 -3 0 24 -17 21 -23 -3 -3 -14 -10 -18 -21 -14
-9 4 -16 3 -15 -2 4 -24 -2 -36 -16 -30 -17 6 -21 -19 -5 -29 6 -3 10 -11 10
-16 0 -14 -24 11 -33 34 -6 15 3 22 26 18 4 0 7 5 7 13 0 8 7 22 16 30 14 15
13 16 -9 16 -18 0 -27 -7 -31 -25 -8 -31 -36 -33 -36 -2 -1 21 -1 21 -14 4
-11 -14 -15 -15 -19 -5 -4 10 -8 10 -17 -2 -10 -12 -11 -11 -7 8 4 15 0 22
-10 22 -11 0 -13 -10 -9 -47 3 -27 3 -42 0 -34 -5 11 -9 9 -18 -7 -8 -15 -15
-19 -26 -12 -13 9 -13 10 0 10 17 0 45 39 35 48 -4 4 -12 -1 -20 -11 -11 -16
-13 -16 -19 -2 -3 9 -2 14 3 11 5 -3 15 2 22 11 12 15 12 16 -3 10 -12 -4 -15
-2 -11 9 4 10 -3 14 -26 14 -23 0 -29 -4 -25 -15 4 -8 1 -15 -5 -15 -6 0 -11
7 -11 15 0 8 -7 15 -16 15 -8 0 -12 -4 -9 -10 3 -5 2 -10 -3 -10 -5 0 -15 -11
-22 -25 -10 -18 -16 -22 -21 -13 -5 7 -4 17 1 22 13 13 13 36 0 36 -5 0 -7 -7
-4 -15 4 -8 2 -15 -4 -15 -6 0 -12 5 -14 12 -3 7 -13 2 -26 -12 -14 -15 -22
-19 -22 -10 0 11 -3 11 -12 2 -19 -19 -29 -14 -16 8 7 11 19 21 28 24 12 3 11
4 -2 5 -21 1 -61 -36 -53 -48 8 -15 -19 -31 -35 -21 -10 7 -11 10 -2 10 6 0
12 7 12 15 0 8 4 15 10 15 5 0 7 7 4 15 -4 8 -13 15 -21 15 -10 0 -13 -6 -9
-16 5 -13 4 -14 -7 -6 -8 7 -17 9 -20 5 -4 -3 -7 -1 -7 5 0 7 -4 12 -10 12 -5
0 -10 -7 -10 -15 0 -8 -4 -15 -10 -15 -5 0 -10 7 -10 15 0 13 -2 14 -14 3 -8
-7 -12 -16 -9 -20 2 -5 0 -8 -6 -8 -5 0 -13 9 -16 20 -7 22 -25 27 -25 8 0 -9
-4 -8 -10 2 -8 13 -10 12 -10 -2 0 -11 -8 -18 -20 -18 -11 0 -20 4 -20 9 0 12
-39 21 -45 11z"/>
<path d="M8014 6940 c-124 -38 -99 -240 31 -240 43 0 94 27 115 62 24 39 25
66 6 113 -24 56 -88 84 -152 65z"/>
<path d="M1701 5368 c-35 -24 -69 -50 -74 -59 -8 -13 4 -36 64 -112 l74 -95 3
80 c2 43 2 113 0 154 l-3 75 -64 -43z"/>
</g>
</svg>
